<svg xmlns="http://www.w3.org/2000/svg" width="15.975" height="21.382" viewBox="0 0 15.975 21.382">
  <path id="Trazado_35" data-name="Trazado 35" d="M6984.915,2021.83c-.011-.14-.028-.28-.051-.419-.009-.061-.02-.121-.031-.18s-.023-.12-.035-.18-.026-.118-.04-.178-.028-.118-.044-.177-.031-.117-.048-.176-.035-.117-.053-.175-.037-.116-.057-.173-.04-.115-.061-.172-.043-.114-.066-.17-.046-.113-.07-.169-.048-.112-.073-.167l-.078-.165c-.027-.055-.054-.109-.082-.163s-.057-.108-.086-.161-.059-.107-.09-.159-.062-.1-.094-.157-.064-.1-.1-.154-.067-.1-.1-.152-.069-.1-.105-.149-.072-.1-.109-.147-.074-.1-.112-.144l-.116-.141-.119-.138q-.06-.069-.123-.135t-.126-.132c-.042-.044-.085-.087-.129-.129s-.087-.085-.132-.126l-.135-.122c-.046-.041-.092-.08-.139-.12s-.093-.077-.141-.115-.1-.076-.144-.112-.1-.073-.147-.109a7.357,7.357,0,0,0-3.675-1.335,4.354,4.354,0,0,0-.994,0,7.163,7.163,0,0,0-5.242,2.769,6.818,6.818,0,0,0-1.476,4.8,7.656,7.656,0,0,0,.573,1.96,33.2,33.2,0,0,0,5.205,8.386c.437.545.876,1.114,1.358,1.62l.078-.057.012.038-.062.046.053.034a3.053,3.053,0,0,1,.26-.319c.427-.589.91-1.137,1.351-1.716,1.87-2.458,4.946-6.725,5.52-9.7.027-.139.048-.278.062-.419s.023-.28.025-.421S6984.925,2021.971,6984.915,2021.83Zm-4.951,2.173a3.164,3.164,0,0,1-2.133.995,3.382,3.382,0,0,1-2.084-.69,3.117,3.117,0,0,1-1.209-2.091c-.007-.056-.012-.111-.016-.167s-.006-.111-.006-.167,0-.111,0-.167,0-.111.01-.167.011-.111.018-.166.017-.11.027-.165.022-.109.035-.163.028-.108.044-.162.032-.106.051-.159.038-.1.059-.156.044-.1.067-.153.049-.1.075-.149.054-.1.082-.146.059-.095.09-.141.063-.092.1-.136.068-.089.1-.132a2.979,2.979,0,0,1,2.2-1.091c.037,0,.074-.006.112-.007a3.134,3.134,0,0,1,2.267.868,3.047,3.047,0,0,1,.99,2.193A3.115,3.115,0,0,1,6979.964,2024Z" transform="translate(-6969.704 -2014.45)" fill="none" stroke="#fff" stroke-miterlimit="10" stroke-width="1.5"/>
</svg>
