<svg xmlns="http://www.w3.org/2000/svg"  viewBox="0 0 37.892 37.893">
  <g id="Grupo_261" data-name="Grupo 261" transform="translate(-3673.255 -54.515)">
    <path id="Trazado_150" data-name="Trazado 150" d="M3692.292,69.93a3.5,3.5,0,1,0,3.5,3.5A3.508,3.508,0,0,0,3692.292,69.93Z" fill="#fff"/>
    <path id="Trazado_151" data-name="Trazado 151" d="M3696.635,64.418h-8.869A4.587,4.587,0,0,0,3683.184,69v8.868a4.587,4.587,0,0,0,4.582,4.583h8.869a4.588,4.588,0,0,0,4.583-4.583V69A4.588,4.588,0,0,0,3696.635,64.418ZM3692.292,78.9a5.471,5.471,0,1,1,5.471-5.471A5.477,5.477,0,0,1,3692.292,78.9Zm5.79-10.006a1.3,1.3,0,1,1,1.3-1.3A1.3,1.3,0,0,1,3698.082,68.9Z" fill="#fff"/>
    <path id="Trazado_152" data-name="Trazado 152" d="M3692.2,54.515a18.946,18.946,0,1,0,18.946,18.946A18.947,18.947,0,0,0,3692.2,54.515Zm11.107,23.354a6.68,6.68,0,0,1-6.673,6.673h-8.869a6.68,6.68,0,0,1-6.672-6.673V69a6.68,6.68,0,0,1,6.672-6.673h8.869A6.68,6.68,0,0,1,3703.308,69Z" fill="#fff"/>
  </g>
</svg>
