<svg xmlns="http://www.w3.org/2000/svg"  viewBox="0 0 37.892 37.893">
  <g id="Grupo_449" data-name="Grupo 449" transform="translate(-1631.314 -101.898)">
    <path id="Trazado_232" data-name="Trazado 232" d="M1650.351,117.314a3.5,3.5,0,1,0,3.5,3.5A3.508,3.508,0,0,0,1650.351,117.314Z" fill="#1c2646"/>
    <path id="Trazado_233" data-name="Trazado 233" d="M1654.694,111.8h-8.869a4.588,4.588,0,0,0-4.583,4.583v8.868a4.588,4.588,0,0,0,4.583,4.583h8.869a4.588,4.588,0,0,0,4.583-4.583v-8.868A4.588,4.588,0,0,0,1654.694,111.8Zm-4.343,14.487a5.471,5.471,0,1,1,5.471-5.47A5.477,5.477,0,0,1,1650.351,126.288Zm5.789-10.006a1.3,1.3,0,1,1,1.3-1.3A1.3,1.3,0,0,1,1656.14,116.282Z" fill="#1c2646"/>
    <path id="Trazado_234" data-name="Trazado 234" d="M1650.26,101.9a18.946,18.946,0,1,0,18.946,18.947A18.946,18.946,0,0,0,1650.26,101.9Zm11.107,23.354a6.68,6.68,0,0,1-6.673,6.673h-8.869a6.68,6.68,0,0,1-6.672-6.673v-8.868a6.68,6.68,0,0,1,6.672-6.673h8.869a6.68,6.68,0,0,1,6.673,6.673Z" fill="#1c2646"/>
  </g>
</svg>
