<svg xmlns="http://www.w3.org/2000/svg" viewBox="0 0 37.892 37.893">
  <path id="Trazado_236" data-name="Trazado 236" d="M1748.884,101.9a18.946,18.946,0,1,0,18.946,18.947A18.947,18.947,0,0,0,1748.884,101.9Zm-6.253,29.3c-1.348-.015-2.7-.012-4.043,0-.216,0-.282-.052-.281-.276q.009-7.2,0-14.409c0-.2.048-.27.259-.268,1.367.009,2.735.011,4.1,0,.263,0,.3.1.3.325-.007,2.391,0,4.783,0,7.175,0,2.372,0,4.744.006,7.116C1742.969,131.12,1742.9,131.2,1742.631,131.2Zm-1.99-17.012a2.691,2.691,0,1,1,2.694-2.7A2.71,2.71,0,0,1,1740.641,114.185Zm19.761,16.7c0,.245-.068.31-.31.308q-2.022-.018-4.045,0c-.237,0-.288-.072-.287-.3q.01-3.735,0-7.471a6.712,6.712,0,0,0-.217-1.854,2.083,2.083,0,0,0-2.293-1.625,2.505,2.505,0,0,0-2.635,2.5,9.509,9.509,0,0,0-.071,1.169c0,2.421,0,4.844.007,7.265,0,.242-.06.313-.307.311q-2.037-.018-4.074,0c-.218,0-.281-.057-.28-.277q.008-7.194,0-14.386c0-.237.078-.292.3-.291q1.935.015,3.869,0c.237,0,.3.075.294.3-.014.572-.005,1.146-.005,1.719.311-.35.568-.705.887-1.006a4.872,4.872,0,0,1,3.5-1.382,8.127,8.127,0,0,1,2.2.269,4.3,4.3,0,0,1,3.056,3.214,13.516,13.516,0,0,1,.407,3.682C1760.408,125.654,1760.4,128.271,1760.4,130.888Z" transform="translate(-1729.938 -101.898)" fill="#1c2646"/>
</svg>
