<svg xmlns="http://www.w3.org/2000/svg" width="86.051" height="86.051" viewBox="0 0 86.051 86.051">
  <g id="Grupo_437" data-name="Grupo 437" transform="translate(-1483.778 -1180.925)">
    <circle id="Elipse_22" data-name="Elipse 22" cx="43.026" cy="43.026" r="43.026" transform="translate(1483.778 1180.925)" fill="#0071bc"/>
    <circle id="Elipse_23" data-name="Elipse 23" cx="31.129" cy="31.129" r="31.129" transform="translate(1495.675 1192.822)" fill="#0071bc"/>
  </g>
  <g id="Grupo_440" data-name="Grupo 440" transform="translate(-1483.778 -1180.925)">
    <path id="Trazado_223" data-name="Trazado 223" d="M1533.948,1207.191a.185.185,0,0,1-.187.187h-12.752a.185.185,0,0,1-.188-.187v-1.228a.185.185,0,0,1,.188-.188h12.752a.185.185,0,0,1,.187.188v1.228Z" fill="#fff"/>
    <g id="Grupo_439" data-name="Grupo 439">
      <path id="Trazado_224" data-name="Trazado 224" d="M1520.868,1218.938c-4.226-1.986-6.97-5.985-6.294-10.723.466-3.253,3.241-6.38,6.079-7.733a15.016,15.016,0,0,1,13.033-.2c6.443,2.807,8.925,10.324,4.078,15.8a13.264,13.264,0,0,1-9.093,4.277.567.567,0,0,0-.344.156c-1.767,1.642-5.844,5.039-8.249,4.546a.728.728,0,0,1-.488-1.075,12.612,12.612,0,0,0,1.567-4.511.518.518,0,0,0-.289-.539m1.877-.43a10.086,10.086,0,0,1-.817,4.284c-.137.321-.051.4.258.239a20.416,20.416,0,0,0,5.113-3.808c.512-.52,1.1-.442,1.755-.516a12.106,12.106,0,0,0,6.536-2.783c5.211-4.328,3.409-11.384-2.318-14.069a13.223,13.223,0,0,0-12.04.144c-6.693,3.3-6.841,11.208-.512,15.074a11.951,11.951,0,0,1,1.825,1,.571.571,0,0,1,.2.434Z" fill="#fff"/>
      <path id="Trazado_225" data-name="Trazado 225" d="M1527.4,1211.936a.175.175,0,0,1-.176.176h-6.262a.175.175,0,0,1-.176-.176v-1.259a.175.175,0,0,1,.176-.175h6.262a.175.175,0,0,1,.176.175v1.259Z" fill="#fff"/>
      <path id="Trazado_226" data-name="Trazado 226" d="M1546.383,1242.565c.067-1.021.094-2.01.09-2.967q-.053-11.493-.035-23.272a.167.167,0,0,0-.168-.168l-4.316.02a.257.257,0,0,1-.293-.286l-.012-1.083a.258.258,0,0,1,.262-.265l5.344.019a.775.775,0,0,1,.77.774l-.019,28.322a.75.75,0,0,1-.747.747l-28.33.012a.22.22,0,0,1-.246-.243l-.016-1.094a.248.248,0,0,1,.25-.254l27.185,0a.251.251,0,0,0,.281-.265Z" fill="#fff"/>
      <path id="Trazado_227" data-name="Trazado 227" d="M1517.037,1223.132a5.989,5.989,0,1,1-5.989-5.989,5.99,5.99,0,0,1,5.989,5.989m-1.618-.008a4.378,4.378,0,1,0-4.379,4.379,4.377,4.377,0,0,0,4.379-4.379Z" fill="#fff"/>
      <path id="Trazado_228" data-name="Trazado 228" d="M1524.766,1231.506q-7.8.01-15.919.027c-1.172,0-2.333-.133-3.252.8a2.919,2.919,0,0,0-.946,2.006q-.053,3.108-.012,6.516a.11.11,0,0,1-.125.129h-1.321a.16.16,0,0,1-.164-.164q.047-2.85,0-5.633c-.039-2.275.754-3.983,2.709-4.871a5.972,5.972,0,0,1,2.419-.4q9.9-.012,18.045.015a.54.54,0,0,1,.536.469c.273,2.154.015,4.144-2.608,4.418s-5.254.57-7.861.887a.177.177,0,0,0-.156.176v8.968a.147.147,0,0,1-.145.144h-1.278a.154.154,0,0,1-.172-.176l0-9.734a.8.8,0,0,1,.789-.883l9.1-1.032a.775.775,0,0,0,.727-.657l.094-.438c.082-.379-.07-.57-.461-.57Z" fill="#fff"/>
    </g>
  </g>
</svg>
