<svg xmlns="http://www.w3.org/2000/svg" width="86.051" height="86.051" viewBox="0 0 86.051 86.051">
  <g id="Grupo_435" data-name="Grupo 435" transform="translate(-1106.935 -1180.925)">
    <circle id="Elipse_20" data-name="Elipse 20" cx="43.026" cy="43.026" r="43.026" transform="translate(1106.935 1180.925)" fill="#0071bc"/>
    <circle id="Elipse_21" data-name="Elipse 21" cx="31.129" cy="31.129" r="31.129" transform="translate(1118.832 1192.822)" fill="#0071bc"/>
  </g>
  <path id="Trazado_222" data-name="Trazado 222" d="M1161.353,1229.586v8.463l-18.788,6.586v-19.148l10.423-3.679q-.468-.693-.888-1.417l-10.348,3.652-4.834-1.743,13.746-4.819q-.312-.748-.579-1.526l-15.6,5.468-2.183-.787,17.341-6.079q-.333-1.174-.571-2.41l-5.777-2.068a.818.818,0,0,0-.544,0l-20.42,7.158a.886.886,0,0,0-.2.1c-.028.022-.041.037-.056.05a.822.822,0,0,0-.116.12c-.016.02-.029.041-.043.062a.842.842,0,0,0-.07.14c-.009.022-.019.044-.026.067a.806.806,0,0,0-.034.213c0,.015,0,20.94,0,20.94a.816.816,0,0,0,.541.768l19.146,6.855a.9.9,0,0,0,.275.048.835.835,0,0,0,.257-.043c.013,0,20.432-7.161,20.432-7.161a.815.815,0,0,0,.546-.77v-8.077l-1.088-.628C1161.709,1229.814,1161.536,1229.7,1161.353,1229.586Zm-28.753-7.109,1.067.385v4.5l-2.982-1.044v-4.532Zm10.419-10.765,4.852,1.738-18,6.309-4.836-1.743Zm-2.086,32.915-17.515-6.272v-19.189l5.635,2.032v5.7a.815.815,0,0,0,.547.77l4.613,1.615a.817.817,0,0,0,1.086-.77v-5.063l5.634,2.032Zm34.393-40.093a14.02,14.02,0,0,1-11.179-5.319,1.089,1.089,0,0,0-1.782,0,14.023,14.023,0,0,1-11.179,5.319,1.088,1.088,0,0,0-1.087,1.088c0,10.352,4.244,18.053,12.613,22.887a1.087,1.087,0,0,0,1.088,0c8.369-4.834,12.613-12.535,12.613-22.887A1.088,1.088,0,0,0,1175.326,1204.534Zm-12.07,21.769c-7.01-4.266-10.695-10.863-10.966-19.628a16.357,16.357,0,0,0,10.966-5.141,16.357,16.357,0,0,0,10.966,5.141C1173.951,1215.44,1170.266,1222.037,1163.256,1226.3Zm-1.253-8.871,7.595-9.465,1.485,1.192-8.935,11.132-5.211-5.287,1.355-1.336Z" transform="translate(-1106.935 -1180.925)" fill="#fff"/>
</svg>
