<svg xmlns="http://www.w3.org/2000/svg" xmlns:xlink="http://www.w3.org/1999/xlink" width="59.357" height="59.357" viewBox="0 0 59.357 59.357">
  <defs>
    <linearGradient id="linear-gradient" x1="0.5" y1="1" x2="0.5" gradientUnits="objectBoundingBox">
      <stop offset="0" stop-color="#00b025"/>
      <stop offset="1" stop-color="#00d662"/>
    </linearGradient>
  </defs>
  <g id="Grupo_364" data-name="Grupo 364" transform="translate(-1160.838 -2488.169)">
    <rect id="Rectángulo_197" data-name="Rectángulo 197" width="59.357" height="59.357" rx="9.865" transform="translate(1160.838 2488.169)" fill="url(#linear-gradient)"/>
    <g id="Grupo_363" data-name="Grupo 363">
      <path id="Trazado_186" data-name="Trazado 186" d="M1210.753,2517.327a19.9,19.9,0,0,1-29.473,17.261l-11,3.5,3.585-10.577a19.513,19.513,0,0,1-2.85-10.18,19.87,19.87,0,0,1,39.738,0Zm-19.868-16.576a16.658,16.658,0,0,0-16.7,16.576,16.41,16.41,0,0,0,3.181,9.719l-2.086,6.154,6.419-2.039a16.619,16.619,0,1,0,9.191-30.41Zm10.033,21.117c-.123-.2-.448-.323-.934-.564s-2.883-1.412-3.328-1.572-.773-.242-1.1.241-1.259,1.572-1.544,1.9-.566.363-1.054.121a13.3,13.3,0,0,1-3.917-2.4,14.7,14.7,0,0,1-2.71-3.346c-.283-.483-.028-.745.213-.986.22-.217.488-.564.731-.845a3.347,3.347,0,0,0,.488-.809.878.878,0,0,0-.042-.845c-.121-.241-1.095-2.62-1.5-3.588s-.81-.93-1.095-.93a7.016,7.016,0,0,0-.809.084,2.754,2.754,0,0,0-1.423.6,5.406,5.406,0,0,0-1.7,4.029,9.345,9.345,0,0,0,1.987,5c.244.324,3.368,5.362,8.32,7.3s4.952,1.289,5.845,1.208,2.881-1.168,3.287-2.3a4.032,4.032,0,0,0,.286-2.3Zm0,0" fill="#fff" fill-rule="evenodd"/>
    </g>
  </g>
</svg>
