<svg xmlns="http://www.w3.org/2000/svg" width="78.462" height="76.23" viewBox="0 0 78.462 76.23">
  <g id="Grupo_10" data-name="Grupo 10" transform="translate(-9971.113 -621.024)">
    <path id="Trazado_6" data-name="Trazado 6" d="M10017.53,689.835c3.56-.144,7.183.561,10.581-1.086a11.551,11.551,0,0,0,6.582-8.558c-.991,0-1.855.027-2.718-.006-1.629-.062-2.364-.768-2.368-2.386q-.026-12.954,0-25.908c0-1.585.686-2.2,2.3-2.265.883-.034,1.767-.043,2.651-.067.038,0,.076-.042.353-.2a24.14,24.14,0,0,0-9.363-19.048,24.489,24.489,0,0,0-27.068-2.23c-9.259,5.1-12.986,14.82-12.56,21.542.884,0,1.789-.016,2.694,0,1.8.039,2.45.639,2.454,2.385q.023,12.888,0,25.775a2.077,2.077,0,0,1-2.356,2.394c-3.365.037-6.733.094-10.1-.014a7.346,7.346,0,0,1-7.47-7.666q-.073-7.64,0-15.279c.046-4.471,3.03-7.446,7.5-7.59.968-.032,1.937-.005,2.852-.005.392-2.427.623-4.76,1.156-7.022,2.652-11.268,12.623-19.9,24.1-21.356a28.612,28.612,0,0,1,31.538,22.675,32.35,32.35,0,0,1,.531,4.6c.047.882.353,1.155,1.2,1.108a22.19,22.19,0,0,1,2.653.039,7.084,7.084,0,0,1,6.778,6.752q.217,8.43,0,16.869c-.105,3.935-3.353,6.739-7.538,6.9-1.01.038-2.263-.258-2.959.232-.617.435-.592,1.756-.891,2.672a15.6,15.6,0,0,1-14.509,10.726c-1.988.034-3.977.005-6.036.005-.042.428-.079.764-.106,1.1-.136,1.673-.77,2.3-2.437,2.313q-4.651.027-9.3,0c-1.65-.01-2.385-.688-2.422-2.315-.049-2.08-.052-4.163,0-6.243.04-1.562.772-2.239,2.346-2.251,2.967-.023,5.934-.011,8.9-.007,2.29,0,2.771.464,2.919,2.776C10017.448,689.374,10017.487,689.545,10017.53,689.835Zm-30.539-13.693V653.63c-2.863,0-5.641-.042-8.414.014a3.238,3.238,0,0,0-3.417,3.435q-.063,7.83,0,15.661a3.156,3.156,0,0,0,3.076,3.366C9981.1,676.246,9983.971,676.142,9986.991,676.142Zm46.691.018c3,0,5.825.083,8.645-.03a3.081,3.081,0,0,0,3.146-3.01c.075-5.484.066-10.97.007-16.454a2.925,2.925,0,0,0-2.6-2.925c-3.033-.115-6.074-.035-9.194-.035Zm-26.348,16.983h5.967V690.5h-5.967Z" fill="#1c1c1c"/>
  </g>
</svg>
