<svg xmlns="http://www.w3.org/2000/svg" width="72.02" height="72.018" viewBox="0 0 72.02 72.018">
  <g id="Grupo_230" data-name="Grupo 230" transform="translate(-10323.602 -623.131)">
    <path id="Trazado_4" data-name="Trazado 4" d="M10351.06,631.2c0-1.885-.01-3.81,0-5.734.012-1.8.52-2.324,2.271-2.328q6.3-.012,12.595,0c1.682,0,2.212.541,2.23,2.239.018,1.67.031,3.342-.008,5.012a1.016,1.016,0,0,0,.83,1.2,20.042,20.042,0,0,1,2.394.916c1.889.822,1.884.833,3.384-.664.94-.938,1.864-1.891,2.824-2.808a1.728,1.728,0,0,1,2.795-.012q4.705,4.654,9.357,9.36a1.755,1.755,0,0,1-.049,2.808c-1.187,1.234-2.387,2.46-3.639,3.627a1.162,1.162,0,0,0-.248,1.652,18.984,18.984,0,0,1,1.318,3.2,1.165,1.165,0,0,0,1.383.939c1.669-.043,3.341-.032,5.012-.006,1.536.024,2.093.579,2.1,2.108q.021,6.426,0,12.852c-.007,1.53-.57,2.088-2.1,2.1-2.008.019-4.016.005-5.941.005-.678,1.559-1.348,2.993-1.9,4.47a1.4,1.4,0,0,0,.3,1.177c1.164,1.254,2.415,2.428,3.611,3.654,1.1,1.128,1.1,1.962-.012,3.083q-4.528,4.559-9.086,9.085c-1.08,1.073-1.9,1.074-2.981.027-1.2-1.163-2.389-2.335-3.537-3.548a1.154,1.154,0,0,0-1.641-.3,14.433,14.433,0,0,1-3.069,1.284c-.959.261-1.143.767-1.11,1.649.06,1.625.039,3.255.008,4.883-.028,1.436-.61,2.009-2.062,2.015q-6.489.024-12.979,0c-1.442-.006-2.019-.585-2.043-2.034-.031-1.713-.039-3.427,0-5.14a1.109,1.109,0,0,0-.891-1.294c-1.174-.385-2.277-.983-3.449-1.374a1.536,1.536,0,0,0-1.292.216c-1.3,1.182-2.493,2.472-3.753,3.694-1.037,1.005-1.872,1.015-2.889.007q-4.654-4.613-9.267-9.268c-.985-.995-.955-1.867.046-2.9,1.163-1.2,2.327-2.4,3.551-3.535a1.219,1.219,0,0,0,.268-1.757,15.2,15.2,0,0,1-1.275-3.074c-.241-.84-.667-1.03-1.464-1-1.669.054-3.341.037-5.012.007-1.45-.026-2.027-.6-2.032-2.043q-.028-6.491,0-12.98c0-1.453.577-2.035,2.013-2.062,1.713-.032,3.428-.049,5.14.008a1.168,1.168,0,0,0,1.346-.987,18.9,18.9,0,0,1,1.337-3.188,1.157,1.157,0,0,0-.316-1.638c-1.21-1.151-2.385-2.34-3.547-3.539-1.038-1.07-1.031-1.913.035-2.985q4.528-4.557,9.085-9.085c1.131-1.124,1.932-1.124,3.073-.011,1.2,1.166,2.384,2.342,3.534,3.552a1.107,1.107,0,0,0,1.542.273C10348.191,632.333,10349.6,631.814,10351.06,631.2Zm-18.019,8.7c1.181,1.151,2.384,2.3,3.566,3.481,1.364,1.358,1.332,1.666.539,3.356a57.092,57.092,0,0,0-2.213,5.453,2.23,2.23,0,0,1-2.4,1.823c-1.786-.063-3.576-.016-5.415-.016v10.278c1.848,0,3.6.051,5.354-.017a2.225,2.225,0,0,1,2.442,1.765,52.315,52.315,0,0,0,2.333,5.677,2.171,2.171,0,0,1-.437,2.964c-1.328,1.2-2.615,2.451-3.724,3.494l7.366,7.506c1.2-1.237,2.457-2.518,3.693-3.821a2.087,2.087,0,0,1,2.759-.419,60.724,60.724,0,0,0,5.792,2.394,2.245,2.245,0,0,1,1.794,2.427c-.065,1.783-.017,3.57-.017,5.374h10.277c0-1.9.037-3.7-.012-5.5a2.114,2.114,0,0,1,1.665-2.249,61.39,61.39,0,0,0,5.8-2.382,2.178,2.178,0,0,1,2.961.472c1.2,1.326,2.44,2.608,3.62,3.862,2.592-2.579,4.956-4.929,7.492-7.452-1.317-1.257-2.64-2.531-3.975-3.791a2.081,2.081,0,0,1-.385-2.761,60.85,60.85,0,0,0,2.386-5.8,2.246,2.246,0,0,1,2.449-1.766c1.779.066,3.563.016,5.371.016V654.014c-1.826,0-3.575-.055-5.319.018a2.274,2.274,0,0,1-2.509-1.853,53.364,53.364,0,0,0-2.214-5.453c-.776-1.655-.8-1.94.488-3.251,1.218-1.234,2.438-2.467,3.53-3.573l-7.293-7.347c-1.2,1.245-2.455,2.527-3.683,3.836a2.13,2.13,0,0,1-2.864.426,50.291,50.291,0,0,0-5.545-2.328c-1.622-.576-1.957-.884-1.961-2.658,0-1.735,0-3.469,0-5.2h-10.277c0,1.876-.043,3.67.015,5.461a2.171,2.171,0,0,1-1.735,2.333,52.252,52.252,0,0,0-5.678,2.333,2.219,2.219,0,0,1-3.061-.5c-1.164-1.307-2.392-2.557-3.548-3.784Z" fill="#1c1c1c"/>
    <path id="Trazado_5" data-name="Trazado 5" d="M10375.04,659.1a15.429,15.429,0,1,1-15.5-15.389A15.451,15.451,0,0,1,10375.04,659.1Zm-3.418.049a12.011,12.011,0,1,0-12.053,12A12.091,12.091,0,0,0,10371.622,659.147Z" fill="#1c1c1c"/>
  </g>
</svg>
