<svg xmlns="http://www.w3.org/2000/svg" width="74.42" height="65.544" viewBox="0 0 74.42 65.544">
  <g id="Grupo_8" data-name="Grupo 8" transform="translate(-10715.046 -621.024)">
    <g id="Grupo_7" data-name="Grupo 7">
      <path id="Trazado_3" data-name="Trazado 3" d="M10736.959,629.848c0-.757-.017-1.337,0-1.916.146-4.077,2.752-6.783,6.829-6.843q8.483-.126,16.97,0c4.07.066,6.661,2.8,6.788,6.881.019.575,0,1.15,0,1.875h1.332q8.95,0,17.9,0c1.94,0,2.674.716,2.675,2.656q.009,23.544,0,47.089c0,4.193-2.774,6.917-7.051,6.955-4.069.035-8.138.008-12.205.008q-23.887,0-47.774,0c-3.562,0-6.021-1.552-6.977-4.482a8.588,8.588,0,0,1-.386-2.623q-.035-23.429-.016-46.856c0-2.024.713-2.743,2.717-2.745q8.893-.008,17.785,0Zm-17.275,16.439-.229-.005v1.13q0,15.932,0,31.863c0,2.2.71,2.9,2.921,2.9q29.878,0,59.757,0c2.211,0,2.921-.709,2.921-2.906q0-15.931,0-31.863v-1.127a1.159,1.159,0,0,0-.452.662c-1.011,3.005-1.97,6.029-3.043,9.013a6.273,6.273,0,0,1-6.21,4.363c-3.217.027-6.433.007-9.649.008h-2.516c0,.7.013,1.271,0,1.843a2.307,2.307,0,0,1-2.5,2.562q-8.427.031-16.856,0a2.306,2.306,0,0,1-2.5-2.564c-.015-.6,0-1.2,0-1.841-3.954,0-7.711,0-11.468,0-3.93,0-6.016-1.522-7.238-5.239C10721.652,652.152,10720.663,649.221,10719.684,646.287Zm21.643,9.666c0-.773-.021-1.352,0-1.929a2.2,2.2,0,0,1,2.417-2.358q8.542-.023,17.081,0a2.173,2.173,0,0,1,2.35,2.3c.031.639,0,1.28,0,1.979,4.021,0,7.854,0,11.687,0,1.72,0,2.237-.384,2.787-2.024q2.1-6.269,4.191-12.54c.779-2.334,1.55-4.67,2.348-7.076h-63.728c-.032.123-.059.166-.049.2q3.292,9.963,6.6,19.921a2.138,2.138,0,0,0,2.224,1.527c2.4-.017,4.8,0,7.2,0Zm21.848-26.133c0-.755.03-1.406-.007-2.053a2.24,2.24,0,0,0-2.385-2.311q-8.531-.04-17.063,0a2.1,2.1,0,0,0-2.274,1.756,14.81,14.81,0,0,0-.03,2.612Zm-17.385,30.4h12.912v-4.176h-12.912Z" fill="#1c1c1c"/>
    </g>
  </g>
</svg>
