<svg xmlns="http://www.w3.org/2000/svg" width="20" height="15.712" viewBox="0 0 20 15.712">
  <path id="Trazado_28" data-name="Trazado 28" d="M6984.808,2139.675h-14.226a2.891,2.891,0,0,0-2.887,2.888v9.936a2.891,2.891,0,0,0,2.887,2.888h14.226a2.891,2.891,0,0,0,2.887-2.888v-9.936A2.891,2.891,0,0,0,6984.808,2139.675Zm0,1.381a1.56,1.56,0,0,1,.343.04l-6,6.81a1.937,1.937,0,0,1-2.908,0l-6-6.81a1.541,1.541,0,0,1,.342-.04Zm1.507,11.443a1.509,1.509,0,0,1-1.507,1.508h-14.226a1.509,1.509,0,0,1-1.507-1.508v-9.936a1.511,1.511,0,0,1,.113-.571l6.018,6.827a3.319,3.319,0,0,0,4.979,0l6.017-6.827a1.511,1.511,0,0,1,.113.571Z" transform="translate(-6967.695 -2139.675)" fill="#fff"/>
</svg>
