<svg xmlns="http://www.w3.org/2000/svg" width="19.951" height="20" viewBox="0 0 19.951 20">
  <g id="Grupo_33" data-name="Grupo 33" transform="translate(-6967.555 -2084.084)">
    <path id="Trazado_25" data-name="Trazado 25" d="M6967.555,2104.084l1.434-5.35a9.9,9.9,0,1,1,3.943,3.909Zm5.644-3.446.339.2a8.035,8.035,0,1,0-2.75-2.725l.208.341-.8,2.987Z" fill="#fff"/>
    <path id="Trazado_26" data-name="Trazado 26" d="M6981.3,2095.335a1.658,1.658,0,0,0-1.414-.318c-.368.15-.6.725-.841,1.019a.352.352,0,0,1-.455.1,6.411,6.411,0,0,1-3.2-2.739.392.392,0,0,1,.05-.536,2.166,2.166,0,0,0,.581-.943,2.063,2.063,0,0,0-.26-1.116,2.65,2.65,0,0,0-.824-1.242,1.129,1.129,0,0,0-1.226.182,2.488,2.488,0,0,0-.863,1.972,2.774,2.774,0,0,0,.077.626,5.159,5.159,0,0,0,.6,1.384,11.083,11.083,0,0,0,.626.953,9.684,9.684,0,0,0,2.719,2.524,8.159,8.159,0,0,0,1.695.806,3.766,3.766,0,0,0,1.974.312,2.386,2.386,0,0,0,1.789-1.331,1.155,1.155,0,0,0,.083-.679C6982.314,2095.84,6981.681,2095.562,6981.3,2095.335Z" fill="#fff" fill-rule="evenodd"/>
  </g>
</svg>
