<svg xmlns="http://www.w3.org/2000/svg" width="20" height="18.493" viewBox="0 0 20 18.493">
  <g id="Grupo_35" data-name="Grupo 35" transform="translate(-7176.316 -2084.576)">
    <g id="Grupo_34" data-name="Grupo 34">
      <path id="Trazado_27" data-name="Trazado 27" d="M7195.306,2097.693c-.5-.244-2.914-1.429-3.365-1.588s-.78-.244-1.108.244-1.278,1.588-1.56,1.908-.573.366-1.071.122a13.3,13.3,0,0,1-3.956-2.425,14.575,14.575,0,0,1-2.734-3.373c-.282-.488-.028-.751.216-1,.225-.225.489-.573.742-.854.066-.085.122-.16.179-.236a5.52,5.52,0,0,0,.31-.582.881.881,0,0,0-.038-.855c-.122-.245-1.108-2.65-1.522-3.627s-.817-.808-1.109-.808-.611-.047-.939-.047a1.82,1.82,0,0,0-1.316.61,5.469,5.469,0,0,0-1.719,4.078,6.186,6.186,0,0,0,.254,1.664,11.073,11.073,0,0,0,1.757,3.382c.244.32,3.4,5.412,8.4,7.376,5.008,1.945,5.008,1.3,5.91,1.212s2.913-1.174,3.316-2.321a4.036,4.036,0,0,0,.292-2.32C7196.123,2098.059,7195.793,2097.937,7195.306,2097.693Z" fill="#fff" fill-rule="evenodd"/>
    </g>
  </g>
</svg>
