<svg xmlns="http://www.w3.org/2000/svg" width="37.021" height="37.022" viewBox="0 0 37.021 37.022">
  <g id="Grupo_186" data-name="Grupo 186" transform="translate(-1186.461 -2557.97)">
    <path id="Trazado_231" data-name="Trazado 231" d="M1204.988,2557.974q3.988,0,7.978,0a10.183,10.183,0,0,1,10.32,8.334,10.4,10.4,0,0,1,.184,2.124q.023,8.037.007,16.072a10.173,10.173,0,0,1-8.307,10.284,10.324,10.324,0,0,1-2.123.191q-8.064.023-16.129.007a10.192,10.192,0,0,1-10.279-8.389,10.6,10.6,0,0,1-.168-2.069q-.019-8.035-.006-16.072a10.166,10.166,0,0,1,8.306-10.283,10.89,10.89,0,0,1,2.181-.191C1199.63,2557.961,1202.309,2557.974,1204.988,2557.974Zm15.144,18.48h.062c0-2.6.011-5.2-.007-7.806a9.084,9.084,0,0,0-.166-1.894,6.9,6.9,0,0,0-7.1-5.494q-7.95-.016-15.9,0a8.29,8.29,0,0,0-1.779.165,6.888,6.888,0,0,0-5.491,7.041c-.019,5.339-.006,10.678,0,16.017a6.992,6.992,0,0,0,7.328,7.22c5.031-.011,10.061,0,15.092-.006.6,0,1.194-.021,1.79-.062a6.746,6.746,0,0,0,6.15-6.169C1220.219,2582.469,1220.132,2579.46,1220.132,2576.454Z" fill="#fff"/>
    <path id="Trazado_232" data-name="Trazado 232" d="M1214.5,2576.507a9.533,9.533,0,1,1-9.479-9.559A9.549,9.549,0,0,1,1214.5,2576.507Zm-9.5-6.273a6.247,6.247,0,1,0,6.217,6.278A6.261,6.261,0,0,0,1205,2570.234Z" fill="#fff"/>
    <path id="Trazado_233" data-name="Trazado 233" d="M1214.886,2568.969a2.419,2.419,0,0,1-2.386-2.392,2.411,2.411,0,0,1,4.821-.013A2.429,2.429,0,0,1,1214.886,2568.969Z" fill="#fff"/>
  </g>
</svg>
