<svg xmlns="http://www.w3.org/2000/svg" width="32.132" height="30.647" viewBox="0 0 32.132 30.647">
  <g id="Grupo_185" data-name="Grupo 185" transform="translate(-1111.386 -2558.335)">
    <path id="Trazado_228" data-name="Trazado 228" d="M1129.387,2588.982h-6.836v-20.626h6.815v2.923c.225-.245.347-.379.472-.513a8.241,8.241,0,0,1,4.822-2.849,7.3,7.3,0,0,1,8.407,5.7,15.541,15.541,0,0,1,.421,3.326c.051,3.884.022,7.77.022,11.655,0,.106-.012.211-.021.362h-6.825c-.009-.193-.029-.4-.029-.6,0-3.369.016-6.737-.014-10.1a12.031,12.031,0,0,0-.274-2.43,2.944,2.944,0,0,0-2.517-2.507,3.6,3.6,0,0,0-3.665,1.467,3.954,3.954,0,0,0-.778,2.447q.009,5.534,0,11.067Z" fill="#fff"/>
    <path id="Trazado_229" data-name="Trazado 229" d="M1111.884,2568.342h6.788v20.633h-6.788Z" fill="#fff"/>
    <path id="Trazado_230" data-name="Trazado 230" d="M1115.225,2565.466a3.529,3.529,0,0,1-3.352-1.788,3.433,3.433,0,0,1,.054-3.613,3.714,3.714,0,0,1,3.517-1.729,3.567,3.567,0,0,1,3.692,3.234,3.527,3.527,0,0,1-3.377,3.894C1115.582,2565.479,1115.4,2565.466,1115.225,2565.466Z" fill="#fff"/>
  </g>
</svg>
