<svg xmlns="http://www.w3.org/2000/svg" width="37.892" height="37.893" viewBox="0 0 37.892 37.893">
  <path id="Trazado_154" data-name="Trazado 154" d="M3790.826,54.515a18.946,18.946,0,1,0,18.946,18.946A18.946,18.946,0,0,0,3790.826,54.515Zm-6.254,29.3c-1.347-.015-2.7-.011-4.043,0-.216,0-.281-.053-.281-.276q.01-7.2,0-14.409c0-.2.048-.27.259-.268,1.368.008,2.735.011,4.1,0,.263,0,.3.1.3.325q-.009,3.586,0,7.175c0,2.372,0,4.744.006,7.116C3784.911,83.737,3784.845,83.816,3784.572,83.813ZM3782.583,66.8a2.691,2.691,0,1,1,2.693-2.7A2.709,2.709,0,0,1,3782.583,66.8Zm19.76,16.7c0,.245-.068.309-.309.307q-2.022-.016-4.045,0c-.238,0-.289-.071-.288-.295q.012-3.736,0-7.471a6.754,6.754,0,0,0-.217-1.854,2.086,2.086,0,0,0-2.294-1.626,2.506,2.506,0,0,0-2.634,2.5,9.294,9.294,0,0,0-.072,1.168c0,2.422,0,4.844.007,7.266,0,.241-.06.312-.306.31q-2.037-.018-4.075,0c-.217,0-.28-.057-.28-.277q.009-7.194,0-14.386c0-.237.077-.292.3-.291q1.935.015,3.87,0c.237,0,.3.075.293.3-.013.573,0,1.146,0,1.72.311-.35.567-.705.887-1.006a4.869,4.869,0,0,1,3.5-1.382,8.085,8.085,0,0,1,2.2.268,4.3,4.3,0,0,1,3.056,3.214,13.447,13.447,0,0,1,.407,3.683C3802.35,78.271,3802.337,80.887,3802.343,83.5Z" transform="translate(-3771.88 -54.515)" fill="#fff"/>
</svg>
