<svg xmlns="http://www.w3.org/2000/svg" width="255.101" height="106.824" viewBox="0 0 255.101 106.824">
  <g id="Grupo_289" data-name="Grupo 289" transform="translate(-147.945 -83.464)">
    <path id="Trazado_167" data-name="Trazado 167" d="M311.843,83.464a.9.9,0,0,0,.386.133c.445.03.89.062,1.336.082a11.489,11.489,0,0,1,1.536.148c.506.09,1.018.146,1.525.234a31.785,31.785,0,0,1,7.084,2.107,30.346,30.346,0,0,1,9.008,5.873,28.2,28.2,0,0,1,6.8,9.831,27.363,27.363,0,0,1,1.607,5.413,28.841,28.841,0,0,1,.431,3.261c.058.822.124,1.641.116,2.466a19.588,19.588,0,0,1-.091,2.055c-.023.205-.035.411-.046.616a34.967,34.967,0,0,1-1.164,6.573,24.614,24.614,0,0,1-3.859,7.8,44.791,44.791,0,0,1-12.467,11.54,46.678,46.678,0,0,1-11.921,5.253c-.165.047-.334.081-.5.132a2.031,2.031,0,0,1-.609.088l-.618,0q-14.113,0-28.226,0a4.284,4.284,0,0,1-1.024-.047c-.055-.013-.1-.08-.143-.13a.165.165,0,0,1-.025-.1,2.1,2.1,0,0,1,0-.307c.1-.852.2-1.7.295-2.555.024-.2.051-.409.068-.614.036-.444.076-.888.15-1.329.039-.236.048-.477.073-.716.032-.307.067-.614.1-.921s.069-.613.1-.92q.059-.51.116-1.022c.031-.272.059-.545.089-.818q.057-.512.116-1.022l.081-.716q.07-.614.138-1.227c.03-.272.055-.546.084-.819s.057-.545.087-.818c.038-.341.079-.681.118-1.022.034-.307.069-.613.1-.92l.1-.92c.033-.307.068-.614.1-.921s.068-.613.1-.92c.038-.341.079-.681.117-1.022.03-.272.058-.546.088-.818.038-.341.078-.682.116-1.022.03-.273.058-.546.089-.819.037-.34.077-.681.115-1.022.03-.273.059-.545.09-.818.037-.341.076-.682.114-1.022q.045-.409.091-.819c.042-.374.087-.749.128-1.124.03-.272.055-.546.085-.819.033-.306.069-.613.1-.92s.068-.613.1-.92l.1-.92.1-.92.1-.921q.051-.459.1-.92c.038-.341.078-.681.116-1.022.031-.273.058-.546.089-.818.038-.341.077-.682.115-1.022.034-.307.065-.614.1-.921q.043-.41.089-.818.057-.512.116-1.023c.034-.306.07-.613.105-.919.031-.273.061-.546.092-.818.042-.375.086-.75.128-1.125.026-.238.05-.477.077-.716.042-.375.086-.749.127-1.124.036-.341.07-.683.1-1.024a5.536,5.536,0,0,1,.136-.915.726.726,0,0,1,.2-.353c.15-.141.3-.278.458-.414l2.853-2.526,14.117-12.482q.732-.648,1.472-1.288a.853.853,0,0,1,.461-.208c.409-.053.815-.121,1.224-.167.307-.035.616-.049.924-.068.48-.03.96-.055,1.44-.085a.746.746,0,0,0,.381-.139Zm-7.254,49.251h0q2.676,0,5.354,0a3.351,3.351,0,0,0,2-.358,20.12,20.12,0,0,0,7.136-4.387,19.453,19.453,0,0,0,3.28-3.946,16.384,16.384,0,0,0,2.514-8.368c.011-.445.007-.891,0-1.337A16.11,16.11,0,0,0,323,107.124a12.8,12.8,0,0,0-3.168-3.88,13.541,13.541,0,0,0-4.118-2.284,19.687,19.687,0,0,0-5.125-1.048c-.342-.025-.685-.04-1.027-.069-.548-.046-1.1-.063-1.646-.063l-5.457,0c-.138,0-.275,0-.412.005-.069,0-.137.01-.205.015a.414.414,0,0,0-.374.3,4.786,4.786,0,0,0-.138.913c-.034.376-.068.752-.1,1.127-.041.409-.087.818-.13,1.227-.025.239-.047.478-.072.716-.043.409-.089.818-.133,1.227-.029.273-.057.546-.086.818-.036.341-.074.682-.111,1.023l-.108,1.022c-.03.273-.061.545-.088.818q-.138,1.382-.274,2.763c-.007.069-.02.136-.027.2-.044.409-.089.818-.132,1.227-.025.239-.046.478-.071.717-.044.409-.09.817-.133,1.226-.025.239-.046.478-.071.717q-.066.613-.134,1.227c-.033.306-.068.613-.1.92s-.067.613-.1.92c-.023.239-.028.481-.065.717-.085.543-.132,1.089-.172,1.637-.012.17-.036.341-.055.511-.044.409-.089.818-.132,1.227-.025.238-.047.477-.073.716-.043.409-.089.818-.131,1.227-.026.239-.035.48-.073.716-.072.441-.106.885-.141,1.33-.016.205-.029.411-.063.613-.072.441-.107.885-.141,1.33-.016.205-.037.41-.06.614-.1.886-.2,1.771-.293,2.658a.864.864,0,0,0,.023.3.251.251,0,0,0,.132.14,1.481,1.481,0,0,0,.607.062Q301.7,132.717,304.589,132.715Z" fill="#1c2646"/>
    <path id="Trazado_168" data-name="Trazado 168" d="M246.242,147.445a18.427,18.427,0,0,1-2.089-.075q-.257-.027-.513-.042a28.26,28.26,0,0,1-12.986-4.22,28.457,28.457,0,0,1-11.536-13.961,29.5,29.5,0,0,1-1.6-5.632,28.448,28.448,0,0,1-.5-4.909c-.006-.961,0-1.921.04-2.881a10.344,10.344,0,0,1,.108-1.23c.027-.169.046-.34.06-.511a24.208,24.208,0,0,1,.507-3.147,33.975,33.975,0,0,1,3.8-9.846,34.44,34.44,0,0,1,11.22-11.849,32.934,32.934,0,0,1,9.371-4.154,27.227,27.227,0,0,1,2.917-.624,18.023,18.023,0,0,1,2.453-.291c.206,0,.411-.028.616-.048a20.011,20.011,0,0,1,3.908,0c.171.017.342.033.514.044a26.921,26.921,0,0,1,5.76,1.048,28.29,28.29,0,0,1,10.121,5.353A28.573,28.573,0,0,1,277,102.477a29.644,29.644,0,0,1,1.472,5.241c.2,1.081.334,2.167.439,3.261a32.37,32.37,0,0,1,.113,3.5,12.572,12.572,0,0,1-.087,1.438c-.017.136-.03.273-.039.41a31,31,0,0,1-1.147,6.367,32.876,32.876,0,0,1-2.4,6.118,34.589,34.589,0,0,1-11.011,12.714,32.672,32.672,0,0,1-10.49,4.881,25.453,25.453,0,0,1-3.734.731c-.307.034-.61.1-.918.13-.752.064-1.506.116-2.26.164C246.624,147.446,246.314,147.443,246.242,147.445Zm.592-15.131a13.519,13.519,0,0,0,3.072-.281,16.722,16.722,0,0,0,4.465-1.523,17.8,17.8,0,0,0,7.435-7.058,17.072,17.072,0,0,0,2.08-5.56,13.265,13.265,0,0,0,.246-1.73,11.715,11.715,0,0,0,.088-1.437,17.644,17.644,0,0,0-.126-1.95,14.568,14.568,0,0,0-.479-2.523,15.008,15.008,0,0,0-4.076-6.921,14.605,14.605,0,0,0-7.265-3.855,11.086,11.086,0,0,0-1.728-.267,9.5,9.5,0,0,0-1.026-.08,15.127,15.127,0,0,0-2.26.114,16.558,16.558,0,0,0-1.926.332,16.744,16.744,0,0,0-5.446,2.366,18.015,18.015,0,0,0-7.554,10.558,14.83,14.83,0,0,0-.466,2.631,21.88,21.88,0,0,0-.058,2.262,15.083,15.083,0,0,0,.668,4.151,14.978,14.978,0,0,0,12.916,10.706C245.871,132.3,246.354,132.294,246.834,132.314Z" fill="#1c2646"/>
    <path id="Trazado_169" data-name="Trazado 169" d="M158.332,123.872c.086-.646.162-1.294.262-1.938.13-.848.243-1.7.358-2.547.1-.714.2-1.428.309-2.139.087-.542.129-1.089.223-1.631.124-.709.193-1.428.291-2.141s.2-1.427.309-2.139c.09-.576.141-1.157.239-1.733.121-.71.188-1.428.287-2.142s.21-1.425.315-2.137c.079-.543.133-1.089.223-1.632.119-.71.187-1.428.287-2.142.052-.373.12-.745.188-1.116a.437.437,0,0,1,.14-.267c.156-.134.3-.277.46-.411l14.819-12.785q1.365-1.178,2.73-2.354c.182-.157.364-.314.553-.462a.805.805,0,0,1,.473-.181c.206-.006.412-.01.618-.01,6.08,0,12.16-.011,18.239.005a16.521,16.521,0,0,1,7.722,1.911,14.547,14.547,0,0,1,7.386,8.966,18.971,18.971,0,0,1,.555,2.615,2.673,2.673,0,0,1,.029.41,20.592,20.592,0,0,1-.1,2.776c-.018.136-.033.272-.044.409a26.8,26.8,0,0,1-1.361,6.427,27.816,27.816,0,0,1-2.822,5.935,28.874,28.874,0,0,1-4.33,5.351q-.332.324-.658.652a.271.271,0,0,0-.01.368c.19.243.38.486.577.725l4.651,5.642c.153.185.3.373.45.563a.516.516,0,0,1,.108.386c-.049.408-.109.816-.168,1.223-.1.713-.207,1.426-.31,2.138-.093.646-.187,1.29-.276,1.936-.093.68-.175,1.361-.272,2.04s-.212,1.356-.3,2.035c-.074.544-.148,1.088-.228,1.631-.175,1.187-.321,2.379-.489,3.568s-.35,2.375-.522,3.563c-.044.306-.064.615-.112.92a4.094,4.094,0,0,1-.129.495.154.154,0,0,1-.246.04c-.164-.174-.331-.346-.488-.528q-4.509-5.223-9.016-10.448-8.883-10.293-17.763-20.586a5.277,5.277,0,0,1-.768-.962.156.156,0,0,1,.041-.184.344.344,0,0,1,.194-.054q.463-.013.927-.014H189.4c.24,0,.481-.012.721,0a4.43,4.43,0,0,0,1.618-.256,9.748,9.748,0,0,0,3.928-2.375A6.566,6.566,0,0,0,196.681,110a7.848,7.848,0,0,0,.938-2.383,7.184,7.184,0,0,0,.135-1.536,7.083,7.083,0,0,0-1.338-4.144,8.485,8.485,0,0,0-1.616-1.722,1.175,1.175,0,0,0-.849-.294c-.171.011-.343,0-.515,0H180.349c-.274,0-.549.011-.823.018a.4.4,0,0,0-.292.255,4.889,4.889,0,0,0-.109.5c-.108.885-.245,1.766-.38,2.648-.1.678-.185,1.359-.281,2.039-.1.713-.208,1.425-.312,2.138-.089.611-.181,1.221-.266,1.833-.094.679-.178,1.36-.275,2.039s-.208,1.356-.307,2.035c-.079.543-.14,1.088-.23,1.631-.112.676-.182,1.359-.278,2.038s-.2,1.357-.306,2.035c-.083.543-.146,1.088-.23,1.631-.183,1.186-.33,2.378-.5,3.567-.1.679-.2,1.356-.307,2.035-.081.542-.146,1.087-.229,1.63-.183,1.186-.33,2.378-.5,3.567-.1.679-.208,1.356-.307,2.035-.094.645-.182,1.29-.272,1.936-.094.68-.184,1.36-.28,2.039q-.18,1.273-.365,2.546c-.1.679-.195,1.358-.3,2.035-.087.542-.133,1.089-.23,1.631-.12.675-.186,1.359-.284,2.038-.064.441-.144.88-.218,1.319a.378.378,0,0,1-.3.243c-.1.011-.2.027-.307.03-.206.005-.412,0-.618,0H156.3q-.411,0-.824-.015a.942.942,0,0,1-.2-.053.323.323,0,0,1-.171-.236c.051-.443.1-.887.156-1.329.094-.679.205-1.356.3-2.035.1-.714.191-1.428.287-2.142.087-.646.166-1.293.266-1.937.132-.848.243-1.7.358-2.547q.146-1.071.31-2.139c.086-.542.131-1.089.224-1.631.122-.71.191-1.428.29-2.142s.2-1.426.31-2.138c.085-.542.139-1.088.223-1.631.184-1.186.33-2.378.491-3.568Z" fill="#1c2646"/>
    <path id="Trazado_170" data-name="Trazado 170" d="M364.1,139.12H349.57c-.344,0-.687.009-1.03.015a.63.63,0,0,0-.381.139c-.241.193-.474.4-.7.6q-2.41,2.169-4.82,4.342-1.377,1.239-2.761,2.471a.132.132,0,0,1-.187.011.189.189,0,0,1-.05-.083.242.242,0,0,1-.015-.1c.056-.615.077-1.233.192-1.842.013-.067.021-.135.028-.2.1-.886.184-1.774.284-2.66.1-.851.206-1.7.308-2.553.028-.238.049-.478.076-.716.038-.341.081-.681.12-1.022.031-.272.058-.546.089-.818.034-.307.071-.613.107-.92.028-.238.057-.477.085-.715.048-.409.1-.817.143-1.226.093-.818.183-1.636.276-2.454.042-.374.091-.749.132-1.123.034-.307.068-.614.092-.922a11.4,11.4,0,0,1,.177-1.221.631.631,0,0,1,.2-.351c.177-.162.351-.329.528-.491l7.047-6.484,9.476-8.712,16.9-15.54L387.94,85.463c.455-.418.913-.832,1.368-1.25a.916.916,0,0,1,.656-.245c.206,0,.412,0,.618,0q5.667,0,11.332,0c.274,0,.549.011.823.023a.335.335,0,0,1,.254.149.24.24,0,0,1,.052.192c-.156,1.19-.3,2.38-.48,3.567-.112.746-.187,1.5-.288,2.245s-.211,1.494-.319,2.241c-.074.509-.115,1.021-.2,1.53-.114.676-.185,1.359-.273,2.039-.093.714-.174,1.43-.28,2.142-.13.882-.243,1.766-.36,2.65q-.148,1.122-.316,2.241c-.081.543-.124,1.09-.215,1.632-.12.71-.19,1.427-.283,2.142-.088.68-.169,1.361-.27,2.039-.131.882-.244,1.767-.36,2.65-.1.748-.211,1.494-.315,2.241q-.134.969-.261,1.937c-.093.715-.176,1.43-.273,2.144s-.215,1.424-.305,2.138q-.117.918-.245,1.835c-.106.747-.187,1.5-.289,2.245s-.22,1.493-.319,2.241c-.059.441-.108.884-.177,1.325-.111.711-.186,1.428-.281,2.142-.1.748-.205,1.495-.308,2.242-.093.679-.189,1.359-.279,2.038-.094.714-.176,1.43-.273,2.143s-.215,1.425-.306,2.139c-.073.578-.155,1.155-.231,1.733-.126.952-.251,1.9-.388,2.854-.108.747-.189,1.5-.288,2.245-.072.544-.151,1.087-.232,1.63a.414.414,0,0,1-.08.185.3.3,0,0,1-.157.117,3.245,3.245,0,0,1-.511.044q-6.747,0-13.495,0a3.023,3.023,0,0,1-.511-.045.268.268,0,0,1-.149-.13.421.421,0,0,1-.043-.2c-.005-.205-.008-.412,0-.617.035-1.029.076-2.057.11-3.086q.051-1.595.09-3.189a3.756,3.756,0,0,0-.037-.407.4.4,0,0,0-.2-.218,2.443,2.443,0,0,0-.3-.043c-.344-.008-.687-.01-1.03-.01Zm10.118-16.106q3.143,0,6.286,0c.309,0,.618-.012.927-.022a.322.322,0,0,0,.3-.234c.059-.3.129-.6.168-.909.1-.783.186-1.567.278-2.351.016-.136.035-.272.054-.408.1-.782.212-1.564.31-2.347s.171-1.569.285-2.349c.079-.544.134-1.09.2-1.635.1-.782.22-1.562.313-2.346.065-.545.114-1.091.207-1.633a.579.579,0,0,0-.019-.3.123.123,0,0,0-.159-.086,1.029,1.029,0,0,0-.42.284L367.456,122.1c-.181.157-.362.316-.538.479a.731.731,0,0,0-.119.165.138.138,0,0,0-.024.093.164.164,0,0,0,.125.141,2.977,2.977,0,0,0,.718.036Q370.915,123.016,374.213,123.014Z" fill="#1c2646"/>
    <path id="Trazado_171" data-name="Trazado 171" d="M165,189.956q-2.112,0-4.224,0c-.412,0-.824-.025-1.236-.03a13.547,13.547,0,0,1-4.65-1.212,12.286,12.286,0,0,1-3.728-2.7,12,12,0,0,1-2.112-3.15c-.231-.5-.455-1-.679-1.5a5.076,5.076,0,0,1-.317-3.121.9.9,0,0,1,.067-.193,2.144,2.144,0,0,1,1.24-1.166,1.073,1.073,0,0,1,.3-.069c.274-.017.548-.03.823-.03q1.905,0,3.812,0c.206,0,.413,0,.618.013a1.988,1.988,0,0,1,1.648,1.074,1.851,1.851,0,0,1,.241.675,4.043,4.043,0,0,0,.2.692,4.944,4.944,0,0,0,.822,1.534,2.521,2.521,0,0,0,1.514.993c.369.08.735.169,1.106.24a8.783,8.783,0,0,0,1.116.177,2.675,2.675,0,0,1,.408.059,5.754,5.754,0,0,0,1.227.124q1.391.012,2.782,0a6.018,6.018,0,0,0,1.33-.136,3.452,3.452,0,0,1,.408-.055,19.373,19.373,0,0,0,3.016-.633,21.435,21.435,0,0,0,2.9-1.051,1.756,1.756,0,0,0,.819-.754,1.375,1.375,0,0,0,.193-.581c.008-.1.013-.2.012-.308a1.629,1.629,0,0,0-.955-1.474,2.854,2.854,0,0,0-.676-.244c-2.725-.688-5.441-1.41-8.162-2.114-1.692-.437-3.385-.873-5.072-1.331-.562-.153-1.133-.27-1.688-.451a13.569,13.569,0,0,1-2.718-1.215,9.281,9.281,0,0,1-2.581-2.182,7.413,7.413,0,0,1-1.515-3.335,7.937,7.937,0,0,1-.1-2.355,11.133,11.133,0,0,1,.708-2.889,13.141,13.141,0,0,1,3.541-4.99,15.116,15.116,0,0,1,4.263-2.656,28.751,28.751,0,0,1,4.812-1.481c.582-.049,1.14-.252,1.728-.263a.58.58,0,0,0,.1-.012,15.791,15.791,0,0,1,2.872-.21c1-.027,1.991.019,2.986.058a2.329,2.329,0,0,1,.409.046c.37.081.748.1,1.122.154.475.065.95.144,1.418.248a32.326,32.326,0,0,1,3.948,1.146,9.808,9.808,0,0,1,4.408,3.263,10.077,10.077,0,0,1,1.777,3.457c.077.263.136.533.234.789a3.216,3.216,0,0,1,.137,1.522,2.391,2.391,0,0,1-.35.96,2.771,2.771,0,0,1-1.491,1.2,1.2,1.2,0,0,1-.3.067c-.239.02-.48.038-.719.038q-2.524.006-5.049,0c-.1,0-.206-.008-.309-.006a2.1,2.1,0,0,1-1.165-.354,3.077,3.077,0,0,1-1.125-1.176c-.1-.182-.181-.369-.273-.553a5.372,5.372,0,0,0-.817-1.182,3.8,3.8,0,0,0-1.7-1.109,21.46,21.46,0,0,0-2.3-.558,2.4,2.4,0,0,0-.307-.031,21.8,21.8,0,0,0-3.088,0,3.28,3.28,0,0,0-.409.047c-.806.164-1.612.322-2.4.557a3.761,3.761,0,0,0-1.791,1.151,3.657,3.657,0,0,0-.838,1.629,1.537,1.537,0,0,0,.6,1.542,2.742,2.742,0,0,0,.544.286,2.833,2.833,0,0,0,.695.184c.447.045.872.186,1.313.252.407.061.812.136,1.212.232,1.067.254,2.145.461,3.213.71,1.5.35,3,.714,4.495,1.1q2.886.754,5.739,1.628a3.27,3.27,0,0,1,.752.325,8.555,8.555,0,0,1,3.608,4.232,7.073,7.073,0,0,1,.464,1.787,8.194,8.194,0,0,1,.124,1.432c-.008.137-.007.275-.024.411a14.451,14.451,0,0,1-4.963,9.317,15.127,15.127,0,0,1-4.421,2.586,20.362,20.362,0,0,1-2.867.814c-.445.034-.889.078-1.335.1-.342.016-.686,0-1.03,0q-2.163,0-4.327,0Z" fill="#375280"/>
    <path id="Trazado_172" data-name="Trazado 172" d="M211.717,173.215H200.28c-.343,0-.687,0-1.03.01a1.888,1.888,0,0,0-1.215.494,1.867,1.867,0,0,0-.616,1.158,5.529,5.529,0,0,0-.011,1.437,3.661,3.661,0,0,0,.33,1.078,5.432,5.432,0,0,0,.969,1.448,7.777,7.777,0,0,0,1.756,1.42,10.86,10.86,0,0,0,3.138,1.261,8.265,8.265,0,0,0,1.313.247,8.432,8.432,0,0,0,1.747.01c.068-.009.137-.009.206-.012a9.835,9.835,0,0,0,4.9-1.689,9.2,9.2,0,0,0,1.985-1.931c.145-.191.279-.39.423-.583a2.183,2.183,0,0,1,.519-.5,2,2,0,0,1,.548-.279,3.556,3.556,0,0,1,1.01-.169c2.129.006,4.259,0,6.388,0q.154,0,.309.012a1.213,1.213,0,0,1,.994.789.922.922,0,0,1-.006.607,11.225,11.225,0,0,1-.7,1.489,21.009,21.009,0,0,1-9.8,8.931,21.586,21.586,0,0,1-3.608,1.2,15.46,15.46,0,0,1-1.727.269.946.946,0,0,0-.205.022,13.493,13.493,0,0,1-2.875.14,4.93,4.93,0,0,1-.922-.088,5.132,5.132,0,0,0-.51-.073,14.372,14.372,0,0,1-3.3-.749,15.63,15.63,0,0,1-3.166-1.473,16.682,16.682,0,0,1-7.005-8.373,18.3,18.3,0,0,1-1.018-3.767c-.106-.642-.173-1.292-.216-1.942a21.481,21.481,0,0,1,0-2.367c.008-.171.032-.341.053-.511.025-.2.062-.408.081-.613a17.977,17.977,0,0,1,.941-4.206,21.44,21.44,0,0,1,6.381-9.439,19.944,19.944,0,0,1,7.44-4.071,14.136,14.136,0,0,1,2.508-.549,13.85,13.85,0,0,1,2.974-.2c.378,0,.755.018,1.133.026a5.324,5.324,0,0,1,1.021.115,12.587,12.587,0,0,1,1.416.259,16.514,16.514,0,0,1,10.411,7.334,17.444,17.444,0,0,1,2.221,5.288,14.2,14.2,0,0,1,.424,2.533,4.028,4.028,0,0,0,.043.409,11.389,11.389,0,0,1,.078,2.363,13.7,13.7,0,0,1-.2,1.737,1.722,1.722,0,0,1-.853,1.23,1.618,1.618,0,0,1-.875.261c-.343-.012-.687,0-1.031,0Zm-3.152-6.917h2.262q2.675,0,5.348,0c.308,0,.616,0,.924-.026a.9.9,0,0,0,.765-1.033c-.039-.166-.086-.331-.136-.494a7.9,7.9,0,0,0-4.842-5.238,7.17,7.17,0,0,0-1.78-.484,19.99,19.99,0,0,0-2.047-.176,9.783,9.783,0,0,0-1.541.012,20.291,20.291,0,0,0-2.13.328,10.041,10.041,0,0,0-2.663,1.054,8.016,8.016,0,0,0-3.617,4.443,1.618,1.618,0,0,0-.08.607.935.935,0,0,0,.276.646,1.1,1.1,0,0,0,.726.344c.308.015.617.018.925.018Z" fill="#375280"/>
    <path id="Trazado_173" data-name="Trazado 173" d="M378.983,173.411h-11.54c-.309,0-.619-.011-.927.009a1.865,1.865,0,0,0-1.629,1.087.606.606,0,0,0-.041.094,4,4,0,0,0-.2,1.419,4.748,4.748,0,0,0,1.055,2.634,8.048,8.048,0,0,0,.7.756,7.517,7.517,0,0,0,1.488,1.1,11.057,11.057,0,0,0,3.253,1.246,7.009,7.009,0,0,0,2.143.225c.206,0,.412-.006.618-.009a9.909,9.909,0,0,0,5.367-1.858,9.142,9.142,0,0,0,1.745-1.737c.186-.247.359-.5.554-.743a2.423,2.423,0,0,1,1.409-.79,1.008,1.008,0,0,1,.2-.018c.24,0,.481-.006.721-.006h5.564c.241,0,.481.008.721,0a1.142,1.142,0,0,1,1.108,1.019.52.52,0,0,1-.011.2,3.575,3.575,0,0,1-.134.389,11.167,11.167,0,0,1-.675,1.387,21.257,21.257,0,0,1-7.219,7.483,18.969,18.969,0,0,1-5.762,2.414c-.487.176-1.01.191-1.508.325a3.184,3.184,0,0,1-.511.056c-.239.024-.479.039-.717.072a11.294,11.294,0,0,1-3.284-.007,2.913,2.913,0,0,0-.307-.035,12.109,12.109,0,0,1-2.626-.484,15.292,15.292,0,0,1-2.6-.962,17.153,17.153,0,0,1-2.409-1.381,16.211,16.211,0,0,1-2.07-1.693,17.087,17.087,0,0,1-4.627-7.895,13.806,13.806,0,0,1-.477-2.419,21.058,21.058,0,0,1-.119-4.517,22.545,22.545,0,0,1,1.1-4.907,21.525,21.525,0,0,1,6.884-9.693,19.941,19.941,0,0,1,7.684-3.82,7.917,7.917,0,0,1,1.514-.295,11.91,11.91,0,0,1,2.457-.218c.79-.023,1.579.016,2.368.058a4.65,4.65,0,0,1,.509.071c.135.023.268.06.4.079a15.32,15.32,0,0,1,4.873,1.578,16.546,16.546,0,0,1,7.735,8.24,17.817,17.817,0,0,1,1.173,3.721,16.011,16.011,0,0,1,.3,2.241,24.89,24.89,0,0,1-.032,3.5,3.617,3.617,0,0,1-.2.9,1.671,1.671,0,0,1-.7.865,1.758,1.758,0,0,1-.966.311c-.309,0-.619,0-.928,0Zm-3.132-6.922h2.776q2.469,0,4.937,0a5.91,5.91,0,0,0,.821-.03.875.875,0,0,0,.776-1.022,6.9,6.9,0,0,0-.214-.792,7.93,7.93,0,0,0-5.035-5.054,10.615,10.615,0,0,0-2.713-.527c-.682-.056-1.37-.036-2.056-.042a4.818,4.818,0,0,0-1.022.1,3.983,3.983,0,0,1-.406.063,9.609,9.609,0,0,0-2.572.681,8.123,8.123,0,0,0-4.621,4.7,4.27,4.27,0,0,0-.193.691,1.064,1.064,0,0,0,.42.988,1.251,1.251,0,0,0,.669.236c.309.006.617.012.925.012Z" fill="#375280"/>
    <path id="Trazado_174" data-name="Trazado 174" d="M263.775,151.706c1.134,0,2.267,0,3.4,0a1.411,1.411,0,0,1,.4.061,1.083,1.083,0,0,1,.735.668c.087.223.175.446.259.671q3.689,9.878,7.374,19.756.414,1.108.829,2.216a7.053,7.053,0,0,0,.266.669,1.136,1.136,0,0,0,1.157.7,1.1,1.1,0,0,0,.884-.453c.144-.192.275-.394.4-.6q1.238-1.957,2.472-3.918l11.693-18.547c.146-.232.3-.462.45-.69a1.1,1.1,0,0,1,.555-.438,1.468,1.468,0,0,1,.294-.084,3.316,3.316,0,0,1,.411-.017h6.182a3.324,3.324,0,0,1,.412.015,1.071,1.071,0,0,1,.969,1.127.852.852,0,0,1-.072.3c-.123.244-.257.484-.4.72q-1.425,2.385-2.855,4.768L286.78,179.989q-2.622,4.368-5.243,8.738c-.141.235-.284.47-.433.7a1.477,1.477,0,0,1-.2.236.74.74,0,0,1-.444.239,6.932,6.932,0,0,1-.718.051q-3.041.006-6.08,0a5.762,5.762,0,0,1-.718-.05.837.837,0,0,1-.581-.388,1.833,1.833,0,0,1-.188-.366c-.091-.222-.171-.449-.252-.674q-2.989-8.271-5.978-16.542-3.25-9-6.5-17.994c-.094-.258-.19-.515-.277-.775a1.368,1.368,0,0,1-.052-.509.9.9,0,0,1,.384-.7,1.148,1.148,0,0,1,.665-.247c.344-.006.687-.007,1.031-.007q1.287,0,2.575,0Z" fill="#375280"/>
    <path id="Trazado_175" data-name="Trazado 175" d="M348.781,165.819c-.619,0-1.237,0-1.855,0-.274,0-.549,0-.824-.015a1.929,1.929,0,0,1-1.408-.753,2.574,2.574,0,0,1-.228-.342c-.109-.174-.208-.355-.32-.528a9.76,9.76,0,0,0-5.659-4.193,8.531,8.531,0,0,0-2.534-.378c-.171,0-.343,0-.515,0a5.947,5.947,0,0,0-1.633.172,11.178,11.178,0,0,0-4.191,1.623,12.7,12.7,0,0,0-4.8,5.513,13.253,13.253,0,0,0-1.016,3.441,3.661,3.661,0,0,0-.047.512c-.014.549-.041,1.1-.025,1.646a10.267,10.267,0,0,0,1.981,5.854,9.687,9.687,0,0,0,5.692,3.812,5.976,5.976,0,0,0,1.216.2,3.344,3.344,0,0,1,.409.045,4.987,4.987,0,0,0,1.64-.009,2.644,2.644,0,0,1,.307-.033,9.5,9.5,0,0,0,3.081-.766,12.219,12.219,0,0,0,5.031-3.81,11.553,11.553,0,0,0,1.039-1.532c.1-.179.206-.355.307-.535a1.728,1.728,0,0,1,.849-.718.975.975,0,0,1,.3-.079,5.507,5.507,0,0,1,.615-.043q2.421,0,4.842,0c.137,0,.274.017.41.028a.669.669,0,0,1,.445.23.9.9,0,0,1,.208.947,17.9,17.9,0,0,1-1.533,3.476,21.4,21.4,0,0,1-5.975,6.719,19.907,19.907,0,0,1-7.036,3.3,8.669,8.669,0,0,1-1.615.306,14.531,14.531,0,0,1-3.179.2c-.275,0-.549-.012-.824-.018a5.058,5.058,0,0,1-1.124-.12,2.611,2.611,0,0,0-.3-.053,15.857,15.857,0,0,1-4.979-1.568,16.613,16.613,0,0,1-7.849-8.4,19.732,19.732,0,0,1-1.209-4.03,20.091,20.091,0,0,1-.267-2.866c.012-.48,0-.961.012-1.441a9.093,9.093,0,0,1,.135-1.535,12.654,12.654,0,0,1,.228-1.421,20.723,20.723,0,0,1,2.925-7.309,21.213,21.213,0,0,1,5.7-6.014,19.841,19.841,0,0,1,8.2-3.412,14.992,14.992,0,0,1,1.839-.216c.754-.037,1.511-.012,2.266-.006a3.86,3.86,0,0,1,.511.058c.17.023.338.063.508.078a14.807,14.807,0,0,1,3.888.94,16.161,16.161,0,0,1,3.631,1.919,16.732,16.732,0,0,1,5.47,6.443,14.618,14.618,0,0,1,1.058,3,2.484,2.484,0,0,1,.056.51,1.073,1.073,0,0,1-.49.963.866.866,0,0,1-.473.178c-.24.009-.48.02-.72.021-.721,0-1.442,0-2.163,0Z" fill="#375280"/>
    <path id="Trazado_176" data-name="Trazado 176" d="M233.623,189.956c-.927,0-1.855,0-2.782,0-.239,0-.479-.022-.718-.041a.772.772,0,0,1-.648-.7c0-.035-.009-.069-.009-.1a2.254,2.254,0,0,1,.009-.308c.122-.815.157-1.639.257-2.455.054-.443.1-.886.138-1.33.045-.513.121-1.022.169-1.534.045-.478.054-.959.138-1.434a6.826,6.826,0,0,0,.078-.715,13.224,13.224,0,0,1,.147-1.433,5.476,5.476,0,0,0,.061-.614,12.068,12.068,0,0,1,.149-1.432,4.625,4.625,0,0,0,.052-.512,13.879,13.879,0,0,1,.156-1.535c.04-.236.047-.478.065-.717a11.213,11.213,0,0,1,.116-1.126,7.1,7.1,0,0,0,.078-.715,13.005,13.005,0,0,1,.147-1.433,5.232,5.232,0,0,0,.061-.614,13.507,13.507,0,0,1,.148-1.433,6.822,6.822,0,0,0,.065-.717,10.133,10.133,0,0,1,.132-1.227,1.961,1.961,0,0,0,.028-.2c.056-.752.107-1.505.229-2.251.032-1,.243-1.975.272-2.971.179-.946.151-1.915.32-2.862a6.621,6.621,0,0,0,.058-.718c.023-.343.052-.684.109-1.023a6.841,6.841,0,0,0,.078-.716,15.188,15.188,0,0,1,.16-1.534,5.561,5.561,0,0,0,.06-.718,10.052,10.052,0,0,1,.21-1.632,1.759,1.759,0,0,1,1.076-1.291,2.375,2.375,0,0,1,1-.208q2.214.012,4.429,0a2.929,2.929,0,0,1,1.2.269,2.229,2.229,0,0,1,1.043.961,1.834,1.834,0,0,1,.253.67q.055.406.131.812a.454.454,0,0,0,.57.3,1.647,1.647,0,0,0,.284-.117c.237-.138.469-.285.7-.429a17.142,17.142,0,0,1,4.822-2.021,14.332,14.332,0,0,1,1.62-.284,2.342,2.342,0,0,0,.409-.048,13.9,13.9,0,0,1,2.875-.106,2.83,2.83,0,0,1,.408.053c.237.038.473.091.712.114a3.972,3.972,0,0,1,1,.248,1.717,1.717,0,0,1,1.028,1.084,1.513,1.513,0,0,1,.067.4,20.328,20.328,0,0,1,.051,2.262c-.014.446-.042.892-.053,1.338a6.557,6.557,0,0,1-.2,1.32,3.227,3.227,0,0,1-.821,1.519,4.32,4.32,0,0,1-2.195,1.266,4.814,4.814,0,0,1-1.119.143c-.721,0-1.442.012-2.163,0a7.143,7.143,0,0,0-2.323.378,11.712,11.712,0,0,0-6.119,4.476,8.9,8.9,0,0,0-1.493,3.469c-.1.5-.157,1.017-.226,1.526-.073.543-.156,1.086-.222,1.63a12.054,12.054,0,0,1-.173,1.326c-.05.788-.213,1.563-.276,2.35-.021.273-.067.544-.1.816-.03.238-.066.476-.086.715a11.167,11.167,0,0,1-.135,1.123c-.038.2-.054.408-.072.613A10.088,10.088,0,0,1,238.92,181a5.231,5.231,0,0,0-.071.613,10.587,10.587,0,0,1-.136,1.123c-.044.236-.053.477-.081.716-.032.272-.068.544-.1.816-.03.238-.069.475-.092.714a10.018,10.018,0,0,1-.133,1.02,5.95,5.95,0,0,0-.077.612c-.03.308-.067.613-.125.917-.051.269-.076.544-.1.817a4.846,4.846,0,0,1-.2,1.007.769.769,0,0,1-.575.535,2.922,2.922,0,0,1-.717.061h-2.884Z" fill="#375280"/>
    <path id="Trazado_177" data-name="Trazado 177" d="M306.564,189.956c-.995,0-1.991,0-2.987,0-.274,0-.548-.016-.822-.033a1.066,1.066,0,0,1-.92-1.067,1.436,1.436,0,0,1,.023-.307,9.876,9.876,0,0,0,.151-1.225c.02-.238.06-.475.091-.713s.068-.476.088-.715a12.326,12.326,0,0,1,.148-1.225c.043-.235.048-.477.075-.716.03-.272.064-.544.1-.816.013-.1.043-.2.048-.3.045-.823.212-1.632.273-2.453.018-.239.057-.476.089-.714.014-.1.043-.2.048-.3.046-.822.215-1.631.273-2.453a5.008,5.008,0,0,1,.071-.612,10.12,10.12,0,0,0,.135-1.123,5.7,5.7,0,0,1,.069-.613,10.124,10.124,0,0,0,.136-1.123,5.445,5.445,0,0,1,.069-.613,10.974,10.974,0,0,0,.145-1.225c.017-.205.05-.409.075-.613.038-.306.075-.612.113-.918s.075-.612.112-.919c.029-.238.063-.476.085-.715a10.386,10.386,0,0,1,.134-1.123,5.439,5.439,0,0,0,.072-.612,10.3,10.3,0,0,1,.134-1.123c.037-.2.054-.408.071-.613a9.433,9.433,0,0,1,.136-1.123,3.945,3.945,0,0,0,.062-.51,12.619,12.619,0,0,1,.156-1.328c.044-.235.048-.477.075-.716.03-.272.066-.544.1-.816.03-.238.068-.476.088-.715.033-.41.074-.819.147-1.225.043-.235.049-.477.075-.716.031-.272.065-.544.1-.816.013-.1.042-.2.048-.3.045-.822.2-1.632.276-2.452.048-.546.133-1.089.217-1.631a.993.993,0,0,1,.449-.664,1.2,1.2,0,0,1,.67-.234c.172,0,.344-.008.515-.008h5.871c.171,0,.343,0,.515.008a1.2,1.2,0,0,1,1.016.6.839.839,0,0,1,.1.286,2.439,2.439,0,0,1,.024.41,2.563,2.563,0,0,1-.025.411c-.138.846-.17,1.705-.3,2.553-.03.2-.058.408-.072.613a12.484,12.484,0,0,1-.162,1.43c-.031.168-.037.341-.052.512-.012.137-.014.274-.03.41-.054.443-.122.884-.165,1.327s-.064.889-.144,1.329a6.556,6.556,0,0,0-.077.716c-.029.376-.062.751-.127,1.124a7.089,7.089,0,0,0-.078.715c-.029.376-.06.752-.126,1.124a7.128,7.128,0,0,0-.079.716c-.03.376-.059.751-.125,1.124a6.859,6.859,0,0,0-.08.715,10.984,10.984,0,0,1-.142,1.226,4.587,4.587,0,0,0-.057.511A12.269,12.269,0,0,1,313.3,171c-.031.168-.036.341-.051.512-.012.137-.015.274-.031.41-.053.443-.121.884-.164,1.327s-.064.889-.145,1.329a6.814,6.814,0,0,0-.077.716c-.029.376-.061.751-.127,1.124-.042.235-.059.476-.078.715-.029.376-.06.752-.126,1.124-.042.236-.06.476-.079.716a10.614,10.614,0,0,1-.126,1.124,5.974,5.974,0,0,0-.072.612,12.109,12.109,0,0,1-.148,1.329,5.216,5.216,0,0,0-.064.614,10.774,10.774,0,0,1-.14,1.226,4.345,4.345,0,0,0-.058.51,13.462,13.462,0,0,1-.16,1.431c-.042.236-.043.478-.069.717-.032.306-.073.612-.106.919-.043.409-.085.818-.121,1.228a1.873,1.873,0,0,1-.182.692.889.889,0,0,1-.7.536c-.272.029-.547.045-.821.047-1.03.005-2.06,0-3.09,0Z" fill="#375280"/>
  </g>
</svg>
