<svg xmlns="http://www.w3.org/2000/svg" width="130.156" height="54.503" viewBox="0 0 130.156 54.503">
  <g id="Grupo_30" data-name="Grupo 30" transform="translate(1854.467 -45.279)">
    <path id="Trazado_379" data-name="Trazado 379" d="M-1770.844,45.279a.451.451,0,0,0,.2.068c.227.015.454.032.682.042a5.894,5.894,0,0,1,.783.075c.259.046.52.075.779.12a16.2,16.2,0,0,1,3.614,1.075,15.5,15.5,0,0,1,4.6,3,14.4,14.4,0,0,1,3.468,5.016,13.942,13.942,0,0,1,.819,2.762,14.31,14.31,0,0,1,.22,1.664c.03.419.064.837.06,1.258a9.974,9.974,0,0,1-.047,1.049c-.011.1-.017.209-.023.314a17.784,17.784,0,0,1-.594,3.353,12.53,12.53,0,0,1-1.969,3.978,22.836,22.836,0,0,1-6.361,5.888,23.8,23.8,0,0,1-6.082,2.681c-.084.024-.17.041-.254.067a1.052,1.052,0,0,1-.31.045h-14.717a2.172,2.172,0,0,1-.522-.024c-.029-.007-.052-.041-.073-.066a.077.077,0,0,1-.013-.05,1.006,1.006,0,0,1,0-.157c.049-.434.1-.869.151-1.3.012-.1.026-.209.035-.313.018-.227.038-.454.076-.678.02-.121.025-.244.037-.366.017-.157.035-.313.052-.47s.035-.313.053-.469c.019-.174.039-.348.059-.522l.045-.417c.02-.174.039-.348.059-.522.014-.121.028-.243.042-.365.023-.208.047-.417.07-.626.015-.139.028-.278.043-.417s.029-.279.044-.418c.02-.174.04-.348.06-.521.018-.157.036-.313.053-.47s.035-.313.052-.469.035-.313.052-.47.035-.313.052-.469c.02-.174.041-.348.06-.522.016-.139.03-.278.045-.417.019-.174.04-.348.059-.522.016-.139.03-.278.046-.417.019-.174.039-.348.058-.522.016-.139.031-.278.046-.417.02-.174.039-.348.059-.522.015-.139.03-.278.046-.417l.066-.574c.015-.139.028-.279.043-.418.017-.156.035-.313.052-.469s.035-.313.052-.47.035-.313.053-.469.034-.313.052-.47.034-.313.051-.469.035-.313.053-.47l.06-.521.045-.418c.019-.174.04-.348.059-.521.017-.157.033-.314.05-.47l.045-.418c.02-.174.039-.347.059-.521l.054-.47c.016-.139.031-.278.047-.417.021-.191.044-.382.065-.573.014-.122.026-.244.039-.366.022-.191.045-.382.065-.574q.028-.261.052-.522a2.816,2.816,0,0,1,.069-.467.369.369,0,0,1,.1-.18c.077-.072.155-.142.234-.211l1.456-1.289,7.2-6.368q.374-.332.751-.657a.442.442,0,0,1,.236-.107c.208-.027.415-.061.624-.085.156-.018.314-.025.471-.035.245-.015.49-.027.735-.043a.376.376,0,0,0,.195-.071Zm-3.7,25.129h2.732a1.708,1.708,0,0,0,1.021-.183,10.278,10.278,0,0,0,3.641-2.238,9.942,9.942,0,0,0,1.673-2.014,8.358,8.358,0,0,0,1.283-4.269c.006-.227,0-.455,0-.682a7.9,7.9,0,0,0-.208-1.663,7.791,7.791,0,0,0-.75-2.008,6.515,6.515,0,0,0-1.617-1.98,6.886,6.886,0,0,0-2.1-1.165,10.06,10.06,0,0,0-2.614-.535c-.175-.013-.35-.02-.524-.035-.28-.023-.56-.032-.84-.032l-2.784,0-.21,0c-.035,0-.07.006-.105.008a.212.212,0,0,0-.191.151,2.438,2.438,0,0,0-.07.466c-.017.192-.035.383-.054.575-.021.209-.044.417-.066.626-.013.122-.024.244-.037.365-.022.209-.045.418-.068.626-.015.139-.029.279-.044.418-.018.174-.037.348-.056.521s-.037.348-.056.522c-.014.139-.03.278-.044.418q-.07.7-.14,1.409c0,.035-.01.07-.014.1-.022.209-.045.418-.067.626-.013.122-.024.244-.037.366-.022.209-.045.417-.067.626-.013.122-.024.244-.037.365q-.033.313-.068.626l-.051.47c-.017.156-.034.313-.049.469-.012.122-.015.245-.033.366-.044.277-.068.556-.088.835-.006.087-.019.174-.028.261-.023.209-.046.417-.068.626-.013.122-.024.244-.037.365-.022.209-.045.418-.067.626-.013.122-.017.245-.037.366-.037.225-.054.451-.072.678-.008.105-.015.21-.032.313-.037.225-.055.452-.072.678-.008.105-.019.21-.03.314-.05.452-.1.9-.15,1.356a.424.424,0,0,0,.012.155.126.126,0,0,0,.067.071.756.756,0,0,0,.31.032Z" fill="#fff"/>
    <path id="Trazado_380" data-name="Trazado 380" d="M-1804.314,77.923a9.572,9.572,0,0,1-1.066-.038c-.087-.009-.175-.016-.262-.022a13.857,13.857,0,0,1-3.445-.67,13.959,13.959,0,0,1-3.181-1.483,14.513,14.513,0,0,1-5.885-7.123,15.035,15.035,0,0,1-.816-2.873,14.606,14.606,0,0,1-.252-2.5c0-.49,0-.98.02-1.47a5.265,5.265,0,0,1,.055-.627c.014-.087.024-.174.031-.261a12.444,12.444,0,0,1,.259-1.606,17.333,17.333,0,0,1,1.939-5.023,17.581,17.581,0,0,1,5.725-6.046,16.807,16.807,0,0,1,4.781-2.119,13.554,13.554,0,0,1,1.489-.318,9.048,9.048,0,0,1,1.251-.149c.1,0,.21-.014.314-.025a10.23,10.23,0,0,1,1.995,0c.087.009.174.017.261.022a13.778,13.778,0,0,1,2.939.535,14.239,14.239,0,0,1,2.721,1.1,14.333,14.333,0,0,1,2.443,1.63,14.58,14.58,0,0,1,4.376,6.128,15.2,15.2,0,0,1,.751,2.674c.1.551.17,1.1.224,1.664a16.6,16.6,0,0,1,.057,1.783,6.45,6.45,0,0,1-.044.734c-.009.069-.015.139-.02.209a15.779,15.779,0,0,1-.585,3.248,16.749,16.749,0,0,1-1.227,3.122,17.654,17.654,0,0,1-5.617,6.487,16.693,16.693,0,0,1-5.353,2.49,12.956,12.956,0,0,1-1.9.373c-.157.017-.311.053-.468.066-.384.033-.769.059-1.153.084C-1804.119,77.924-1804.277,77.922-1804.314,77.923Zm.3-7.72a6.919,6.919,0,0,0,1.567-.143,8.548,8.548,0,0,0,2.278-.777,9.087,9.087,0,0,0,3.794-3.6,8.734,8.734,0,0,0,1.061-2.836,6.931,6.931,0,0,0,.125-.883,5.8,5.8,0,0,0,.045-.733,8.909,8.909,0,0,0-.064-.995,7.479,7.479,0,0,0-.244-1.287,7.657,7.657,0,0,0-2.08-3.532,7.451,7.451,0,0,0-3.707-1.966,5.468,5.468,0,0,0-.881-.136,4.845,4.845,0,0,0-.524-.041,7.674,7.674,0,0,0-1.153.058,8.553,8.553,0,0,0-.983.169,8.543,8.543,0,0,0-2.778,1.208,9.188,9.188,0,0,0-3.854,5.386,7.522,7.522,0,0,0-.238,1.343,11.36,11.36,0,0,0-.03,1.154,7.723,7.723,0,0,0,.341,2.118,7.611,7.611,0,0,0,2.684,3.92,7.658,7.658,0,0,0,3.906,1.542C-1804.5,70.2-1804.257,70.193-1804.012,70.2Z" fill="#fff"/>
    <path id="Trazado_381" data-name="Trazado 381" d="M-1849.167,65.9c.044-.33.083-.66.133-.989.067-.432.125-.866.183-1.3.049-.364.1-.728.158-1.091.044-.276.066-.556.114-.832.063-.362.1-.728.148-1.092s.1-.729.158-1.092c.046-.294.072-.59.122-.884.061-.362.1-.728.146-1.093s.107-.727.161-1.09c.04-.277.068-.556.114-.833.061-.362.095-.728.146-1.092.026-.191.061-.38.1-.57a.223.223,0,0,1,.072-.136c.079-.069.155-.142.234-.21l7.561-6.523,1.393-1.2c.093-.08.186-.16.282-.236a.416.416,0,0,1,.242-.092c.1,0,.21-.005.315-.005,3.1,0,6.2-.006,9.306,0a8.426,8.426,0,0,1,3.939.976,7.417,7.417,0,0,1,3.769,4.574,9.632,9.632,0,0,1,.283,1.334,1.329,1.329,0,0,1,.015.209,10.464,10.464,0,0,1-.051,1.417c-.009.069-.016.139-.022.208a13.7,13.7,0,0,1-.694,3.279,14.185,14.185,0,0,1-1.44,3.029,14.719,14.719,0,0,1-2.209,2.73q-.169.165-.336.332a.138.138,0,0,0-.005.188c.1.124.194.248.294.37l2.373,2.878c.078.1.154.191.23.288a.262.262,0,0,1,.055.2c-.025.208-.056.416-.085.624l-.159,1.091c-.047.329-.095.658-.14.988-.048.346-.09.694-.139,1.04s-.109.692-.156,1.039c-.038.277-.075.555-.116.832-.089.606-.164,1.214-.25,1.82s-.178,1.212-.266,1.818c-.023.156-.033.314-.057.469a2.213,2.213,0,0,1-.066.253.08.08,0,0,1-.126.021c-.083-.09-.169-.177-.248-.27q-2.3-2.664-4.6-5.331-4.531-5.251-9.063-10.5a2.689,2.689,0,0,1-.391-.491.078.078,0,0,1,.021-.094.179.179,0,0,1,.1-.027c.157-.005.315-.007.473-.007h3.838c.122,0,.245-.006.368,0a2.269,2.269,0,0,0,.825-.13,4.981,4.981,0,0,0,2-1.212,3.367,3.367,0,0,0,.516-.66,4.029,4.029,0,0,0,.479-1.216,3.748,3.748,0,0,0,.069-.784,3.621,3.621,0,0,0-.683-2.114,4.352,4.352,0,0,0-.825-.879.6.6,0,0,0-.433-.15c-.087.006-.175,0-.263,0h-6.676c-.141,0-.281.006-.421.009a.2.2,0,0,0-.149.131,2.544,2.544,0,0,0-.055.255c-.055.452-.125.9-.194,1.352-.053.346-.094.693-.143,1.04-.052.364-.107.727-.16,1.091-.045.311-.092.623-.135.935-.049.347-.091.694-.141,1.041s-.106.691-.156,1.038c-.041.277-.072.555-.117.832-.058.345-.093.693-.143,1.04s-.1.692-.156,1.038c-.042.277-.074.555-.117.832-.093.605-.168,1.213-.254,1.82-.049.346-.1.692-.156,1.038-.042.277-.074.555-.117.832-.093.6-.168,1.213-.254,1.82-.049.346-.106.692-.156,1.038-.048.329-.093.659-.139.988-.048.347-.094.694-.143,1.04q-.092.649-.186,1.3c-.051.347-.1.693-.155,1.039-.045.276-.069.555-.118.832-.061.344-.095.693-.145,1.039-.033.225-.073.449-.111.674a.2.2,0,0,1-.154.124c-.052.005-.1.013-.156.015-.1,0-.211,0-.316,0h-7.623c-.14,0-.28,0-.42-.007a.514.514,0,0,1-.1-.027.166.166,0,0,1-.087-.121c.026-.226.048-.452.079-.678.048-.346.1-.692.154-1.038.051-.364.1-.729.146-1.093.045-.33.085-.66.136-.988.067-.433.124-.867.183-1.3q.074-.546.158-1.091c.043-.277.067-.556.114-.832.062-.362.1-.729.148-1.093s.1-.728.158-1.091c.044-.277.071-.555.114-.832.094-.605.168-1.214.251-1.821Z" fill="#fff"/>
    <path id="Trazado_382" data-name="Trazado 382" d="M-1744.185,73.676h-7.41c-.175,0-.351,0-.526.008a.314.314,0,0,0-.194.071c-.123.1-.242.2-.359.307q-1.23,1.107-2.459,2.216c-.468.421-.939.84-1.408,1.26a.068.068,0,0,1-.1.006.094.094,0,0,1-.025-.042.113.113,0,0,1-.008-.051c.028-.314.039-.629.1-.94.006-.034.01-.069.014-.1.048-.452.094-.9.145-1.357.049-.434.1-.868.157-1.3.015-.122.025-.244.039-.366.019-.174.041-.347.061-.521.016-.139.03-.279.045-.418.018-.156.037-.312.055-.469.014-.121.029-.243.043-.365.025-.208.05-.417.073-.625.048-.418.094-.835.141-1.252.022-.191.047-.382.068-.574.017-.156.034-.313.046-.47a5.924,5.924,0,0,1,.091-.623.321.321,0,0,1,.1-.179l.269-.251,3.6-3.308,4.835-4.444,8.625-7.929,6.149-5.655c.232-.213.466-.424.7-.637a.466.466,0,0,1,.335-.126c.1,0,.21,0,.315,0h5.781c.14,0,.28.006.42.012a.171.171,0,0,1,.13.076.145.145,0,0,1,.024.046.117.117,0,0,1,0,.052c-.079.607-.154,1.215-.245,1.82-.056.381-.095.764-.146,1.146s-.108.762-.163,1.143c-.038.259-.059.521-.1.78-.058.345-.094.694-.139,1.041-.047.364-.089.729-.143,1.093-.066.45-.124.9-.184,1.352q-.075.572-.161,1.143c-.041.277-.063.556-.11.833-.061.362-.1.728-.144,1.092-.045.347-.086.695-.138,1.041-.066.45-.124.9-.183,1.352-.051.382-.108.762-.161,1.144q-.068.493-.133.988c-.048.364-.09.729-.139,1.093s-.11.727-.156,1.091c-.04.313-.081.625-.125.937-.054.381-.1.764-.147,1.145s-.113.762-.163,1.143c-.03.226-.055.452-.09.677-.057.362-.095.728-.144,1.092-.051.382-.1.763-.157,1.144-.048.347-.1.693-.142,1.04-.048.365-.09.73-.14,1.094s-.11.726-.156,1.091c-.037.295-.079.589-.118.884-.064.486-.128.971-.2,1.456-.055.381-.1.764-.147,1.146-.036.277-.076.554-.118.831a.2.2,0,0,1-.041.094.15.15,0,0,1-.08.06,1.632,1.632,0,0,1-.261.023h-6.885a1.507,1.507,0,0,1-.26-.023.132.132,0,0,1-.077-.067.231.231,0,0,1-.022-.1c0-.105,0-.211,0-.315.018-.525.039-1.05.056-1.575q.025-.813.046-1.627a1.8,1.8,0,0,0-.019-.207.206.206,0,0,0-.1-.112,1.194,1.194,0,0,0-.156-.022c-.175,0-.35,0-.525,0Zm5.163-8.218h3.207c.158,0,.315-.007.473-.012a.164.164,0,0,0,.154-.119c.03-.154.065-.308.085-.464.052-.4.095-.8.143-1.2.008-.07.017-.139.027-.209.053-.4.108-.8.158-1.2s.087-.8.145-1.2c.041-.277.069-.556.1-.833.05-.4.112-.8.16-1.2.033-.278.058-.557.1-.834a.3.3,0,0,0-.009-.154.063.063,0,0,0-.082-.044.53.53,0,0,0-.214.145l-7.9,6.849c-.093.081-.185.162-.275.245a.371.371,0,0,0-.061.084.073.073,0,0,0-.012.047.083.083,0,0,0,.064.072,1.5,1.5,0,0,0,.366.019Z" fill="#fff"/>
    <path id="Trazado_383" data-name="Trazado 383" d="M-1845.764,99.613c-.718,0-1.437,0-2.155,0-.21,0-.42-.013-.63-.015a6.884,6.884,0,0,1-2.373-.619,6.27,6.27,0,0,1-1.9-1.379,6.111,6.111,0,0,1-1.078-1.607c-.117-.254-.232-.51-.346-.765a2.587,2.587,0,0,1-.162-1.593.476.476,0,0,1,.034-.1,1.091,1.091,0,0,1,.633-.6.509.509,0,0,1,.153-.035c.14-.009.28-.016.42-.016q.972,0,1.945,0c.1,0,.21,0,.315.006a1.015,1.015,0,0,1,.841.548.951.951,0,0,1,.123.345,2.081,2.081,0,0,0,.1.353,2.546,2.546,0,0,0,.42.783,1.29,1.29,0,0,0,.772.506c.188.041.375.086.564.123a4.79,4.79,0,0,0,.57.09,1.213,1.213,0,0,1,.208.03,3,3,0,0,0,.626.063q.71.006,1.419,0a3.1,3.1,0,0,0,.679-.069,1.6,1.6,0,0,1,.208-.028,9.913,9.913,0,0,0,1.539-.323,11.06,11.06,0,0,0,1.479-.536.9.9,0,0,0,.418-.385.687.687,0,0,0,.1-.3c0-.053.007-.1.007-.158a.832.832,0,0,0-.488-.752,1.446,1.446,0,0,0-.345-.124c-1.39-.351-2.776-.72-4.164-1.079-.863-.223-1.727-.445-2.588-.679-.286-.078-.578-.138-.861-.23a6.953,6.953,0,0,1-1.387-.62,4.737,4.737,0,0,1-1.316-1.113,3.789,3.789,0,0,1-.774-1.7,4.076,4.076,0,0,1-.052-1.2,5.614,5.614,0,0,1,.361-1.473,6.689,6.689,0,0,1,1.807-2.546,7.711,7.711,0,0,1,2.174-1.356,14.728,14.728,0,0,1,2.455-.755c.3-.025.582-.129.882-.135a.3.3,0,0,0,.052-.005,8,8,0,0,1,1.465-.108c.509-.013,1.016.01,1.524.03a1.216,1.216,0,0,1,.209.023c.189.042.381.054.572.079.243.033.485.073.724.127a16.481,16.481,0,0,1,2.014.584,5,5,0,0,1,2.249,1.665,5.128,5.128,0,0,1,.906,1.764c.04.134.07.272.12.4a1.644,1.644,0,0,1,.07.777,1.243,1.243,0,0,1-.178.49,1.418,1.418,0,0,1-.762.613.567.567,0,0,1-.152.034c-.123.01-.245.02-.368.02h-2.575c-.053,0-.1,0-.158,0a1.07,1.07,0,0,1-.594-.181,1.568,1.568,0,0,1-.574-.6c-.049-.093-.093-.188-.14-.282a2.746,2.746,0,0,0-.416-.6,1.947,1.947,0,0,0-.868-.566,10.812,10.812,0,0,0-1.172-.285,1.175,1.175,0,0,0-.157-.015,11.053,11.053,0,0,0-1.576,0,1.616,1.616,0,0,0-.208.024c-.411.084-.823.164-1.226.284a1.915,1.915,0,0,0-.914.588,1.861,1.861,0,0,0-.428.83.785.785,0,0,0,.3.787,1.363,1.363,0,0,0,.278.146,1.422,1.422,0,0,0,.355.094c.227.023.445.1.67.129.207.031.414.069.618.118.545.13,1.094.235,1.639.362.767.179,1.532.365,2.294.564q1.471.384,2.928.83a1.68,1.68,0,0,1,.384.166,4.362,4.362,0,0,1,1.84,2.159,3.615,3.615,0,0,1,.237.912,4.155,4.155,0,0,1,.063.731c0,.07,0,.14-.012.209a7.376,7.376,0,0,1-2.532,4.754,7.729,7.729,0,0,1-2.256,1.319,10.3,10.3,0,0,1-1.463.416c-.227.017-.453.039-.681.05-.174.009-.35,0-.525,0Z" fill="#fff"/>
    <path id="Trazado_384" data-name="Trazado 384" d="M-1821.929,91.071h-5.836c-.175,0-.35,0-.525,0a.966.966,0,0,0-.62.253.947.947,0,0,0-.314.59,2.807,2.807,0,0,0-.006.733,1.884,1.884,0,0,0,.168.55,2.775,2.775,0,0,0,.495.739,3.937,3.937,0,0,0,.9.725,5.52,5.52,0,0,0,1.6.643,4.167,4.167,0,0,0,.67.126,4.349,4.349,0,0,0,.891.005c.035,0,.07,0,.1-.006a5.006,5.006,0,0,0,2.5-.862,4.684,4.684,0,0,0,1.013-.985c.074-.1.143-.2.216-.3a1.084,1.084,0,0,1,.265-.253,1.01,1.01,0,0,1,.279-.143,1.834,1.834,0,0,1,.515-.086q1.63,0,3.26,0c.052,0,.1,0,.157.006a.619.619,0,0,1,.508.4.474.474,0,0,1,0,.311,5.647,5.647,0,0,1-.357.759,10.726,10.726,0,0,1-5,4.557,11.042,11.042,0,0,1-1.841.611,8.19,8.19,0,0,1-.881.137.536.536,0,0,0-.1.011,6.922,6.922,0,0,1-1.467.072,2.562,2.562,0,0,1-.47-.045,2.54,2.54,0,0,0-.26-.038,7.312,7.312,0,0,1-1.685-.382,8.017,8.017,0,0,1-1.616-.751,8.512,8.512,0,0,1-3.573-4.272,9.351,9.351,0,0,1-.52-1.922c-.054-.328-.088-.66-.11-.991a10.807,10.807,0,0,1,0-1.208c0-.087.016-.174.026-.261.013-.1.032-.208.042-.312a9.162,9.162,0,0,1,.48-2.146,10.931,10.931,0,0,1,3.256-4.816,10.159,10.159,0,0,1,3.8-2.077,7.182,7.182,0,0,1,1.28-.28,6.958,6.958,0,0,1,1.518-.1c.192,0,.385.009.578.013a2.78,2.78,0,0,1,.521.058,6.322,6.322,0,0,1,.722.133,8.424,8.424,0,0,1,5.312,3.742,8.918,8.918,0,0,1,1.133,2.7,7.339,7.339,0,0,1,.217,1.292,1.814,1.814,0,0,0,.021.209,5.792,5.792,0,0,1,.04,1.2,7.11,7.11,0,0,1-.1.886.878.878,0,0,1-.435.628.825.825,0,0,1-.447.133c-.175-.006-.35,0-.525,0Zm-1.609-3.529h3.883c.157,0,.315,0,.471-.014a.456.456,0,0,0,.391-.527c-.02-.084-.044-.168-.07-.252a4.029,4.029,0,0,0-2.47-2.672,3.637,3.637,0,0,0-.908-.247,10.115,10.115,0,0,0-1.045-.09,5.029,5.029,0,0,0-.786.006,10.3,10.3,0,0,0-1.087.168,5.11,5.11,0,0,0-1.358.537,4.086,4.086,0,0,0-1.845,2.267.838.838,0,0,0-.042.31.477.477,0,0,0,.142.329.558.558,0,0,0,.37.176c.157.008.315.009.472.009Z" fill="#fff"/>
    <path id="Trazado_385" data-name="Trazado 385" d="M-1736.588,91.171h-5.888c-.158,0-.316,0-.473.005a.953.953,0,0,0-.831.554.341.341,0,0,0-.021.048,2.024,2.024,0,0,0-.1.724,2.418,2.418,0,0,0,.538,1.344,3.931,3.931,0,0,0,.356.386,3.826,3.826,0,0,0,.759.56,5.629,5.629,0,0,0,1.66.636,3.567,3.567,0,0,0,1.093.115l.315,0a5.054,5.054,0,0,0,2.738-.948,4.615,4.615,0,0,0,.891-.886c.095-.126.183-.257.283-.379a1.233,1.233,0,0,1,.719-.4.516.516,0,0,1,.1-.01c.123,0,.245,0,.368,0h2.839c.123,0,.245,0,.368,0a.548.548,0,0,1,.34.12.558.558,0,0,1,.225.4.259.259,0,0,1-.006.1,1.551,1.551,0,0,1-.068.2,5.765,5.765,0,0,1-.344.708,10.843,10.843,0,0,1-3.684,3.817,9.641,9.641,0,0,1-2.939,1.232c-.249.09-.516.1-.77.166a1.708,1.708,0,0,1-.26.029c-.122.012-.245.019-.366.037a5.775,5.775,0,0,1-1.676,0,1.372,1.372,0,0,0-.157-.018,6.22,6.22,0,0,1-1.34-.247,7.8,7.8,0,0,1-1.327-.491,8.727,8.727,0,0,1-1.229-.7,8.251,8.251,0,0,1-1.056-.864,8.708,8.708,0,0,1-2.361-4.028,7.1,7.1,0,0,1-.244-1.234,10.7,10.7,0,0,1-.06-2.305,11.5,11.5,0,0,1,.561-2.5,10.976,10.976,0,0,1,3.512-4.945,10.158,10.158,0,0,1,3.92-1.949,4.049,4.049,0,0,1,.773-.151,6.054,6.054,0,0,1,1.253-.111c.4-.012.806.008,1.209.03a2.274,2.274,0,0,1,.259.036c.069.011.137.03.207.04a7.837,7.837,0,0,1,2.486.805,8.437,8.437,0,0,1,3.946,4.2,9.063,9.063,0,0,1,.6,1.9,8.1,8.1,0,0,1,.153,1.143,12.665,12.665,0,0,1-.016,1.784,1.815,1.815,0,0,1-.1.461.846.846,0,0,1-.357.441.9.9,0,0,1-.493.159c-.157,0-.315,0-.473,0Zm-1.6-3.532h3.935a3.077,3.077,0,0,0,.419-.016.447.447,0,0,0,.4-.521,3.494,3.494,0,0,0-.11-.4,4.042,4.042,0,0,0-2.568-2.579,5.435,5.435,0,0,0-1.385-.269c-.347-.028-.7-.018-1.048-.021a2.412,2.412,0,0,0-.522.05,1.785,1.785,0,0,1-.207.032,4.9,4.9,0,0,0-1.312.348,4.144,4.144,0,0,0-2.358,2.4,2.067,2.067,0,0,0-.1.352.542.542,0,0,0,.214.5.644.644,0,0,0,.341.12c.158,0,.315.006.472.006Z" fill="#fff"/>
    <path id="Trazado_386" data-name="Trazado 386" d="M-1795.369,80.1c.579,0,1.157,0,1.735,0a.719.719,0,0,1,.206.031.553.553,0,0,1,.375.34c.044.115.09.228.132.343q1.883,5.04,3.763,10.08.211.565.422,1.13c.043.115.082.232.136.342a.581.581,0,0,0,.591.356.559.559,0,0,0,.451-.231c.073-.1.14-.2.2-.305q.632-1,1.261-2l5.966-9.463c.075-.118.152-.235.23-.352a.565.565,0,0,1,.283-.224.729.729,0,0,1,.15-.042,1.631,1.631,0,0,1,.21-.009h3.154a1.632,1.632,0,0,1,.21.008.545.545,0,0,1,.494.575.427.427,0,0,1-.036.151c-.063.125-.131.247-.2.367q-.727,1.218-1.457,2.433l-6.54,10.9-2.675,4.459c-.072.12-.145.239-.221.357a.721.721,0,0,1-.1.12.376.376,0,0,1-.226.122,3.481,3.481,0,0,1-.367.026q-1.551,0-3.1,0a2.989,2.989,0,0,1-.367-.025.426.426,0,0,1-.3-.2.985.985,0,0,1-.1-.186c-.046-.113-.086-.229-.128-.344q-1.526-4.22-3.05-8.44l-3.316-9.181c-.048-.131-.1-.263-.141-.395a.692.692,0,0,1-.027-.26.464.464,0,0,1,.2-.356.6.6,0,0,1,.34-.126c.175,0,.35,0,.525,0h1.314Z" fill="#fff"/>
    <path id="Trazado_387" data-name="Trazado 387" d="M-1752,87.3h-.946c-.14,0-.28,0-.42-.007a.983.983,0,0,1-.719-.385,1.31,1.31,0,0,1-.116-.174c-.056-.089-.106-.181-.164-.269a4.979,4.979,0,0,0-2.887-2.14,4.35,4.35,0,0,0-1.292-.193c-.088,0-.176,0-.263,0a3,3,0,0,0-.834.088,5.7,5.7,0,0,0-2.138.828,6.474,6.474,0,0,0-2.447,2.812,6.779,6.779,0,0,0-.518,1.756,1.752,1.752,0,0,0-.024.262c-.007.279-.021.56-.013.839a5.238,5.238,0,0,0,1.011,2.987,4.942,4.942,0,0,0,2.9,1.945,3.043,3.043,0,0,0,.62.1,1.826,1.826,0,0,1,.209.023,2.529,2.529,0,0,0,.837,0,1.348,1.348,0,0,1,.157-.017,4.843,4.843,0,0,0,1.571-.391,6.228,6.228,0,0,0,2.567-1.944,5.893,5.893,0,0,0,.53-.781c.051-.092.106-.182.157-.273a.882.882,0,0,1,.433-.367.526.526,0,0,1,.151-.04,2.745,2.745,0,0,1,.314-.022q1.234,0,2.47,0c.07,0,.14.009.21.014a.34.34,0,0,1,.227.118.459.459,0,0,1,.106.483,9.191,9.191,0,0,1-.782,1.773,10.939,10.939,0,0,1-3.049,3.429,10.15,10.15,0,0,1-3.59,1.682,4.341,4.341,0,0,1-.824.156,7.4,7.4,0,0,1-1.622.1c-.14,0-.28-.006-.42-.009a2.581,2.581,0,0,1-.574-.062c-.051-.012-.1-.02-.155-.027a8.068,8.068,0,0,1-2.54-.8,8.47,8.47,0,0,1-4.005-4.284,10.1,10.1,0,0,1-.617-2.056,10.38,10.38,0,0,1-.136-1.462c.006-.245,0-.49.006-.735a4.684,4.684,0,0,1,.069-.784,6.381,6.381,0,0,1,.117-.725,10.563,10.563,0,0,1,1.492-3.729,10.818,10.818,0,0,1,2.908-3.068,10.282,10.282,0,0,1,3.158-1.512c.337-.1.68-.168,1.024-.229a7.591,7.591,0,0,1,.938-.11c.385-.019.771-.007,1.156,0a1.929,1.929,0,0,1,.261.029c.086.012.172.032.259.04a7.6,7.6,0,0,1,1.984.479,8.232,8.232,0,0,1,1.852.98,8.531,8.531,0,0,1,2.791,3.287,7.454,7.454,0,0,1,.54,1.531,1.251,1.251,0,0,1,.029.26.549.549,0,0,1-.25.491.45.45,0,0,1-.242.091c-.122,0-.245.01-.367.011Z" fill="#fff"/>
    <path id="Trazado_388" data-name="Trazado 388" d="M-1810.753,99.613c-.473,0-.946,0-1.419,0-.122,0-.245-.011-.367-.021a.394.394,0,0,1-.33-.356.485.485,0,0,1,0-.052,1.048,1.048,0,0,1,0-.158c.062-.415.08-.836.131-1.252.028-.226.051-.452.071-.679.023-.261.061-.521.086-.782.023-.244.028-.49.07-.732.021-.12.031-.243.04-.365a6.882,6.882,0,0,1,.075-.731,2.7,2.7,0,0,0,.031-.313,6.17,6.17,0,0,1,.076-.731,2.081,2.081,0,0,0,.026-.261,7.318,7.318,0,0,1,.08-.783c.021-.121.024-.244.033-.366a5.522,5.522,0,0,1,.06-.574c.021-.121.03-.243.039-.366a6.619,6.619,0,0,1,.075-.73,2.386,2.386,0,0,0,.031-.314,6.939,6.939,0,0,1,.076-.731,3.393,3.393,0,0,0,.033-.366,5.3,5.3,0,0,1,.067-.626.867.867,0,0,0,.015-.1c.028-.384.054-.768.117-1.148.016-.508.124-1.008.138-1.516.092-.483.077-.977.164-1.461a3.412,3.412,0,0,0,.029-.366c.012-.174.027-.349.056-.522a3.439,3.439,0,0,0,.04-.365,7.381,7.381,0,0,1,.082-.783,2.974,2.974,0,0,0,.03-.366,5.075,5.075,0,0,1,.107-.833.9.9,0,0,1,.549-.658,1.212,1.212,0,0,1,.51-.107q1.13.007,2.26,0a1.491,1.491,0,0,1,.61.138,1.131,1.131,0,0,1,.533.49.94.94,0,0,1,.129.341c.019.139.041.277.067.415a.231.231,0,0,0,.291.153.8.8,0,0,0,.144-.06c.121-.07.24-.145.359-.218a8.725,8.725,0,0,1,2.46-1.031,7.03,7.03,0,0,1,.826-.145,1.327,1.327,0,0,0,.209-.025,7.125,7.125,0,0,1,1.467-.054,1.329,1.329,0,0,1,.208.027c.121.019.242.047.363.058a2.054,2.054,0,0,1,.509.127.878.878,0,0,1,.524.553.745.745,0,0,1,.034.206,10.365,10.365,0,0,1,.026,1.155c-.007.227-.021.455-.027.682a3.342,3.342,0,0,1-.1.674,1.649,1.649,0,0,1-.419.775,2.21,2.21,0,0,1-1.12.646,2.511,2.511,0,0,1-.571.073c-.368,0-.736.006-1.1,0a3.651,3.651,0,0,0-1.185.193,5.975,5.975,0,0,0-3.122,2.284,4.552,4.552,0,0,0-.762,1.77c-.051.257-.079.519-.115.778-.037.277-.079.554-.113.832a6.363,6.363,0,0,1-.088.676c-.026.4-.109.8-.141,1.2-.011.14-.035.278-.052.417-.015.121-.033.243-.044.364a5.54,5.54,0,0,1-.068.574,2.922,2.922,0,0,0-.037.312,4.984,4.984,0,0,1-.069.573,2.554,2.554,0,0,0-.036.313,5.526,5.526,0,0,1-.07.573c-.022.12-.027.244-.041.365-.017.139-.035.278-.052.417-.016.121-.036.242-.047.364a5.048,5.048,0,0,1-.068.52,2.978,2.978,0,0,0-.04.313c-.015.157-.034.312-.063.468-.026.137-.039.277-.052.416a2.49,2.49,0,0,1-.1.514.391.391,0,0,1-.293.273,1.45,1.45,0,0,1-.366.031h-1.472Z" fill="#fff"/>
    <path id="Trazado_389" data-name="Trazado 389" d="M-1773.537,99.613c-.508,0-1.016,0-1.524,0-.14,0-.28-.009-.42-.017a.545.545,0,0,1-.469-.545.675.675,0,0,1,.012-.156,5.275,5.275,0,0,0,.077-.625c.01-.122.031-.243.046-.364s.035-.243.045-.365a6.233,6.233,0,0,1,.075-.625c.023-.12.025-.243.039-.365.015-.139.033-.278.05-.416.007-.052.022-.1.025-.156.023-.42.108-.833.139-1.251.009-.122.029-.243.045-.365.007-.052.022-.1.025-.155.023-.42.11-.833.139-1.252a2.985,2.985,0,0,1,.036-.312,5.011,5.011,0,0,0,.069-.573,2.734,2.734,0,0,1,.036-.313,5.27,5.27,0,0,0,.069-.573,2.705,2.705,0,0,1,.035-.313,5.507,5.507,0,0,0,.074-.625c.009-.1.026-.208.038-.312.02-.157.039-.313.058-.469l.057-.469c.015-.121.032-.242.044-.364a5.268,5.268,0,0,1,.068-.573,2.707,2.707,0,0,0,.036-.313,5.524,5.524,0,0,1,.069-.573c.019-.1.027-.208.036-.313a4.812,4.812,0,0,1,.07-.572,2.09,2.09,0,0,0,.031-.261,6.4,6.4,0,0,1,.08-.677c.022-.12.024-.244.038-.365.016-.139.034-.278.051-.417.015-.121.035-.243.045-.365.017-.209.038-.417.075-.625.022-.12.025-.243.039-.365.015-.139.032-.278.05-.416.007-.052.022-.1.025-.156.023-.42.1-.833.141-1.251.024-.279.068-.556.11-.832a.515.515,0,0,1,.229-.339.624.624,0,0,1,.343-.12l.262,0h2.995c.088,0,.176,0,.263,0a.611.611,0,0,1,.519.307.427.427,0,0,1,.052.146,1.226,1.226,0,0,1,.013.209,1.47,1.47,0,0,1-.013.21c-.071.432-.087.87-.152,1.3-.016.1-.03.208-.037.312a6.143,6.143,0,0,1-.083.73,2.525,2.525,0,0,0-.026.261c-.006.07-.007.14-.016.21-.027.225-.062.45-.084.676s-.032.454-.073.679c-.022.12-.03.243-.04.365a5.514,5.514,0,0,1-.065.573c-.021.12-.03.243-.039.365-.015.192-.031.384-.065.574-.021.12-.03.243-.04.365a5.754,5.754,0,0,1-.064.573,3.435,3.435,0,0,0-.04.365,5.726,5.726,0,0,1-.073.626,2.245,2.245,0,0,0-.029.26,6.141,6.141,0,0,1-.082.73c-.016.086-.019.174-.027.261-.006.07-.007.14-.015.21-.028.225-.062.45-.084.677s-.033.453-.074.678a3.437,3.437,0,0,0-.039.365c-.015.192-.031.383-.065.573-.022.12-.03.243-.04.365-.015.192-.03.384-.064.574a3.438,3.438,0,0,0-.04.365c-.016.192-.029.383-.064.573a2.708,2.708,0,0,0-.037.313,6.469,6.469,0,0,1-.076.678,2.73,2.73,0,0,0-.033.313,5.261,5.261,0,0,1-.071.625,2.317,2.317,0,0,0-.03.261,6.875,6.875,0,0,1-.081.73c-.022.12-.022.244-.035.366-.017.156-.038.312-.054.469-.022.208-.044.417-.062.626a.951.951,0,0,1-.093.353.456.456,0,0,1-.36.274,4.187,4.187,0,0,1-.419.023c-.525,0-1.051,0-1.576,0Z" fill="#fff"/>
  </g>
</svg>
