<svg xmlns="http://www.w3.org/2000/svg" width="203.989" height="49.689" viewBox="0 0 203.989 49.689">
  <g id="Grupo_176" data-name="Grupo 176" transform="translate(-127.884 -34.307)">
    <g id="Grupo_175" data-name="Grupo 175">
      <path id="Trazado_208" data-name="Trazado 208" d="M216.145,34.783h6.906V61.04h-.916c-2.149,0-4.3-.006-6.447,0a.885.885,0,0,1-.839-.424c-2.78-3.893-5.589-7.766-8.392-11.643q-1.224-1.7-2.453-3.387c-.087-.119-.2-.223-.371-.42V61h-6.895V34.78c.167-.007.315-.019.463-.02,2.207,0,4.413,0,6.62,0a.728.728,0,0,1,.694.35c1.918,2.68,3.867,5.338,5.808,8q2.811,3.859,5.626,7.719a1.023,1.023,0,0,0,.2.137Z" fill="#fff"/>
      <path id="Trazado_209" data-name="Trazado 209" d="M331.873,34.808v26.2c-.189.009-.372.026-.556.026-2.284,0-4.567-.008-6.85.011a.835.835,0,0,1-.779-.419c-2.218-3.092-4.463-6.164-6.689-9.25-1.432-1.985-2.844-3.985-4.267-5.976a2.661,2.661,0,0,0-.273-.264V61h-6.793V34.76h.912c1.842,0,3.686.047,5.526-.023a1.784,1.784,0,0,1,1.688.861c2.854,3.957,5.736,7.894,8.6,11.841.83,1.143,1.642,2.3,2.547,3.57v-16.2Z" fill="#fff"/>
      <path id="Trazado_210" data-name="Trazado 210" d="M153.355,61.039c-2.957,0-5.776.029-8.593-.037-.336-.008-.707-.488-.981-.816-1.163-1.392-2.3-2.807-3.437-4.22-1.375-1.706-2.738-3.421-4.114-5.126-.485-.6-.995-1.182-1.564-1.855V61h-6.782V34.76h.631c4.835,0,9.671-.047,14.505.017a8.944,8.944,0,0,1,7.144,3.26,7.352,7.352,0,0,1,1.643,4.426,9.757,9.757,0,0,1-.352,3.724,7.759,7.759,0,0,1-5.035,4.933c-.352.121-.719.2-1.134.316Zm-18.683-14a1.318,1.318,0,0,0,.208.046c2.262,0,4.525.029,6.786-.017a3.2,3.2,0,0,0,1.426-.446,3.387,3.387,0,0,0,1.383-3.949,3.064,3.064,0,0,0-2.915-2.153c-2.088.061-4.178.017-6.268.017h-.62Z" fill="#fff"/>
      <path id="Trazado_211" data-name="Trazado 211" d="M234.616,60.956V34.76h.587c3.818,0,7.637-.06,11.453.02a16.768,16.768,0,0,1,7.317,1.685,10.325,10.325,0,0,1,5.828,7.8,20.6,20.6,0,0,1,.332,4.187A13.617,13.617,0,0,1,258,55.788a10.8,10.8,0,0,1-5.266,4.1,14.325,14.325,0,0,1-4.892,1.027c-4.385.06-8.771.073-13.157.1C234.675,61.019,234.661,61,234.616,60.956Zm6.92-5.576c1.389,0,2.713.026,4.035-.01a11.422,11.422,0,0,0,2.079-.233,6.015,6.015,0,0,0,4.359-3.415,9.029,9.029,0,0,0,.778-5.3,6.39,6.39,0,0,0-4.6-5.576,6.81,6.81,0,0,0-1.945-.3c-1.564-.043-3.13-.014-4.71-.014Z" fill="#fff"/>
      <path id="Trazado_212" data-name="Trazado 212" d="M281.989,61.551a15.776,15.776,0,0,1-7.138-1.527,11.435,11.435,0,0,1-6.3-7.979,16.015,16.015,0,0,1-.446-4.8,14.47,14.47,0,0,1,2.478-7.8,11.672,11.672,0,0,1,5.182-4,16.467,16.467,0,0,1,4.771-1.058,17.868,17.868,0,0,1,7.431.841A11.311,11.311,0,0,1,292.456,38a11.64,11.64,0,0,1,3.274,6.445,18.967,18.967,0,0,1,.332,3.612,14.3,14.3,0,0,1-2.482,8.316,11.733,11.733,0,0,1-5.379,4.091,14.138,14.138,0,0,1-4.167.922C283.352,61.433,282.671,61.5,281.989,61.551ZM275.33,48.169a16.241,16.241,0,0,0,.278,2.149A6.435,6.435,0,0,0,279,54.94a7,7,0,0,0,5.234.339,5.875,5.875,0,0,0,3.756-3.376,10.063,10.063,0,0,0,.588-6.326,6.43,6.43,0,0,0-2.759-4.3,6.735,6.735,0,0,0-4.7-.991,6.087,6.087,0,0,0-4.273,2.48A9.229,9.229,0,0,0,275.33,48.169Z" fill="#fff"/>
      <path id="Trazado_213" data-name="Trazado 213" d="M188.736,61.026h-7.859c-.4-1.034-.793-2.068-1.219-3.087a.636.636,0,0,0-.458-.34c-3.875-.019-7.751-.015-11.65-.015l-1.409,3.438h-7.255c3.736-8.775,7.448-17.495,11.181-26.262h5.89c1.706,0,1.681.01,2.322,1.558,1.063,2.571,2.162,5.127,3.247,7.689q1.914,4.518,3.83,9.034c1.055,2.473,2.125,4.94,3.186,7.411C188.615,60.623,188.662,60.805,188.736,61.026Zm-15.08-18.658-3.8,9.416H177.3C176.091,48.667,174.9,45.6,173.656,42.368Z" fill="#fff"/>
    </g>
    <text id="ARGENTINA" transform="translate(128.009 79.996)" fill="#fff" font-size="16.873" font-family="Arial-BoldMT, Arial" font-weight="700" letter-spacing="0.1em"><tspan x="0" y="0">ARGENTINA</tspan></text>
  </g>
</svg>
