<svg xmlns="http://www.w3.org/2000/svg" width="52.644" height="68.307" viewBox="0 0 52.644 68.307">
  <g id="Grupo_14" data-name="Grupo 14" transform="translate(-9791.38 -1232.784)">
    <path id="Trazado_7" data-name="Trazado 7" d="M9844.023,1259.106a26.321,26.321,0,0,0-26.321-26.322h0a26.321,26.321,0,0,0-26.321,26.322h0a26.194,26.194,0,0,0,3.074,12.345h-.006l.043.073c.273.511.565,1.009.871,1.5q1.774,3.014,3.829,6.116a132.862,132.862,0,0,0,18.315,21.952,251.616,251.616,0,0,0,17.743-21.383c1.054-1.424,2.072-2.84,3.072-4.252a26.33,26.33,0,0,0,1.847-2.633l.015-.021h0a26.2,26.2,0,0,0,3.841-13.7Z" fill="#009fe1"/>
    <path id="Trazado_8" data-name="Trazado 8" d="M9832.795,1272.837c-3.142,0-6.138.03-9.132-.04-.357-.008-.75-.518-1.042-.867-1.235-1.48-2.443-2.983-3.653-4.484-1.461-1.813-2.909-3.636-4.371-5.448-.516-.639-1.058-1.256-1.663-1.971v12.77h-7.206V1244.91h.671c5.138,0,10.276-.049,15.415.019a9.5,9.5,0,0,1,7.591,3.464,7.814,7.814,0,0,1,1.746,4.7,10.349,10.349,0,0,1-.374,3.956,8.247,8.247,0,0,1-5.351,5.243c-.375.129-.764.214-1.205.335Zm-19.854-14.881a1.328,1.328,0,0,0,.221.048c2.4,0,4.808.031,7.211-.017a3.4,3.4,0,0,0,1.516-.474,3.6,3.6,0,0,0,1.471-4.2,3.255,3.255,0,0,0-3.1-2.288c-2.219.064-4.439.017-6.661.017h-.658Z" fill="#fff"/>
  </g>
</svg>
