<svg xmlns="http://www.w3.org/2000/svg" xmlns:xlink="http://www.w3.org/1999/xlink" width="157.443" height="157.443" viewBox="0 0 157.443 157.443">
  <defs>
    <filter id="Rect치ngulo_159" x="0" y="0" width="157.443" height="157.443" filterUnits="userSpaceOnUse">
      <feOffset input="SourceAlpha"/>
      <feGaussianBlur stdDeviation="9.623" result="blur"/>
      <feFlood flood-opacity="0.8"/>
      <feComposite operator="in" in2="blur"/>
      <feComposite in="SourceGraphic"/>
    </filter>
  </defs>
  <g transform="matrix(1, 0, 0, 1, 0, 0)" filter="url(#Rect치ngulo_159)">
    <rect id="Rect치ngulo_159-2" data-name="Rect치ngulo 159" width="99.703" height="99.703" rx="22.446" transform="translate(28.87 28.87)" fill="#1c1c1c"/>
  </g>
  <g id="Grupo_228" data-name="Grupo 228" transform="translate(-281.632 -890.307)">
    <path id="Trazado_264" data-name="Trazado 264" d="M371.671,952.681c2.065,0,4.032,0,6,0,2.218,0,4.436-.027,6.653.01a6.241,6.241,0,0,1,6.35,5.06c.788,3.244,1.5,6.508,2.331,9.741a2.976,2.976,0,0,0,1.135,1.513c1.014.72,2.211,1.19,3.189,1.948a2.772,2.772,0,0,1,1.064,1.815c.088,4.756.057,9.515.043,14.272,0,1.362-.526,1.885-1.922,1.905-2.137.031-4.275.041-6.41-.006a1.205,1.205,0,0,0-1.381.96,7.683,7.683,0,0,1-14.574-.062c-.278-.85-.716-.89-1.4-.888q-9.676.018-19.353.007c-3.185,0-6.37.021-9.555-.016a1.288,1.288,0,0,0-1.493.964,7.678,7.678,0,0,1-14.567-.076,1.1,1.1,0,0,0-1.3-.883c-1.167.039-2.338.031-3.507,0-1.46-.034-1.961-.536-1.961-1.99q-.01-17.9,0-35.8c0-1.568.506-2.048,2.133-2.05q7.682-.009,15.362,0h30.24c2.627,0,2.788.158,2.853,2.782C371.609,952.084,371.637,952.283,371.671,952.681Zm-47.5,22.012H368.39V952.309H324.173Zm47.478,11.1c1.984.212,1.984.212,2.709-1.454A7.7,7.7,0,0,1,385,980.556a7.954,7.954,0,0,1,4.049,5.25h6.189v-4.2c-1.385,0-2.669.012-3.952,0-1.463-.017-1.936-.49-1.96-1.975-.019-1.249-.016-2.5,0-3.748.02-1.555.494-2.032,2.025-2.048,1.3-.012,2.606,0,3.909,0l.125-.437c-1.59-.777-2.83-2.257-4.792-2.282-3.546-.045-7.093-.011-10.64-.014-2.082,0-2.522-.452-2.524-2.578q0-5.682,0-11.366c0-.426-.036-.853-.055-1.269h-5.719Zm-3.248-2.345H355.628a7.406,7.406,0,0,1-.966-.018c-.948-.124-1.633-.585-1.567-1.629a1.491,1.491,0,0,1,1.717-1.464q6.166,0,12.332,0h1.24V977.99H324.22v7.858h3.21c1.518-4.079,4.1-6.285,7.6-6.18,4.022.122,6.535,2.342,7.682,6.154H368.4Zm21.332-15.54a3.517,3.517,0,0,0,0-.628c-.7-3.017-1.4-6.034-2.124-9.046a2.745,2.745,0,0,0-2.133-2.251,42.346,42.346,0,0,0-4.835-.265v12.19Zm-54.653,24.11a4.62,4.62,0,1,0-4.617-4.586A4.595,4.595,0,0,0,335.082,992.017Zm41.784-4.583a4.518,4.518,0,0,0,4.58,4.584,4.621,4.621,0,1,0-.063-9.241A4.539,4.539,0,0,0,376.866,987.434Zm15.6-9h2.812V977h-2.812Z" fill="#009fe3"/>
    <path id="Trazado_265" data-name="Trazado 265" d="M348.659,980.09c1.846.249,2.812,1.286,2.063,2.417a2.267,2.267,0,0,1-1.648.877,4.261,4.261,0,0,1-2.235-.747,1.547,1.547,0,0,1-.008-1.5A6.459,6.459,0,0,1,348.659,980.09Z" fill="#009fe3"/>
  </g>
</svg>
