<svg xmlns="http://www.w3.org/2000/svg" width="67.341" height="41.009" viewBox="0 0 67.341 41.009">
  <path id="Trazado_221" data-name="Trazado 221" d="M374.309,1213.18c-.018.3-.029.594-.029.894,0,.276.008.549.023.821h-8.258a.857.857,0,0,1,0-1.715Zm-10.694.857a.858.858,0,0,0-.858-.857h-1.981a.857.857,0,0,0,0,1.715h1.981A.858.858,0,0,0,363.615,1214.037Zm-2.122,5.452h13.8a14.839,14.839,0,0,1-.551-1.715H361.493a.857.857,0,1,0,0,1.715Zm15.291,2.879H364.865a.857.857,0,1,0,0,1.715h13.244A15.117,15.117,0,0,1,376.784,1222.368Zm-15.308-.122h-2.513a.979.979,0,1,0,0,1.959h2.513a.979.979,0,0,0,0-1.959Zm45.212,14.94H388.457a5.041,5.041,0,0,1-.554,1.69q-.117.215-.253.417a5.058,5.058,0,0,1-8.388,0q-.137-.2-.253-.417a5.041,5.041,0,0,1-.554-1.69h-3.4a.858.858,0,0,1-.858-.858v-7.841h-4.945a.857.857,0,0,1,0-1.714h5.8a1.741,1.741,0,0,1,.857,1.347v7.351H378.5a5.065,5.065,0,0,1,.129-.51,4.974,4.974,0,0,1,.383-.907q.117-.214.253-.417a5.1,5.1,0,0,1,.618-.748,5.1,5.1,0,0,1,7.77.748q.137.2.253.417a5,5,0,0,1,.512,1.417h17.416V1210.3H403.86a14.688,14.688,0,0,0-.562-1.715h3.39a.858.858,0,0,1,.858.858v5.18h10.868a.858.858,0,0,1,.754.449l6.053,11.158a.859.859,0,0,1,.1.409v9.689a.857.857,0,0,1-.857.858h-5.231a5.017,5.017,0,0,1-.553,1.69q-.117.215-.253.417a5.037,5.037,0,0,1-7.6.9q-.18-.164-.343-.344a5.028,5.028,0,0,1-.446-.56c-.091-.135-.176-.274-.253-.417a5.036,5.036,0,0,1-.556-1.69Zm2.522-.223a4.807,4.807,0,0,1-.032-.5,5.011,5.011,0,0,1,.037-.578,5.011,5.011,0,0,0-.037.578A4.543,4.543,0,0,0,409.21,1236.963Zm7.634-.5a2.608,2.608,0,1,0-2.608,2.608A2.611,2.611,0,0,0,416.844,1236.465Zm-9.3-.994h1.731c-.014.069-.02.14-.032.21a5.04,5.04,0,0,1,.544-1.627c.077-.143.162-.282.253-.417a5.121,5.121,0,0,1,.977-1.075,5.056,5.056,0,0,1,6.793.327,5.1,5.1,0,0,1,.618.748q.137.2.253.417a4.979,4.979,0,0,1,.383.907,5.065,5.065,0,0,1,.129.51h4.415v-8.614l-5.706-10.519H407.546Zm-21.482.994a2.608,2.608,0,1,0-2.608,2.608A2.611,2.611,0,0,0,386.064,1236.465Zm-17.153-27.88a.858.858,0,0,0,0,1.715h5.849a15.077,15.077,0,0,1,.562-1.715Zm20.4-8.071a13.56,13.56,0,1,1-13.561,13.56A13.576,13.576,0,0,1,389.31,1200.514Zm.49,3.381h-.98v-1.409a11.614,11.614,0,0,0-11.1,11.1h1.41v.98h-1.41a11.614,11.614,0,0,0,11.1,11.1v-1.409h.98v1.409a11.827,11.827,0,0,0,5.262-1.518,11.487,11.487,0,0,0,5.837-9.581h-1.41v-.98h1.41a11.614,11.614,0,0,0-11.1-11.1Zm-1.225,2.513v7.666c0,.016,0,.031,0,.047s0,.052.008.078.01.046.016.069.013.045.022.068.019.043.029.065.021.042.034.062a.621.621,0,0,0,.042.058c.014.019.029.037.045.055s.038.036.057.053.022.022.035.032l4.763,3.588a.735.735,0,0,0,.884-1.174l-4.47-3.367v-7.3a.735.735,0,0,0-1.47,0Z" transform="translate(-357.983 -1200.514)" fill="#fff"/>
</svg>
