<svg xmlns="http://www.w3.org/2000/svg" xmlns:xlink="http://www.w3.org/1999/xlink" width="157.443" height="157.443" viewBox="0 0 157.443 157.443">
  <defs>
    <filter id="Rect치ngulo_158" x="0" y="0" width="157.443" height="157.443" filterUnits="userSpaceOnUse">
      <feOffset input="SourceAlpha"/>
      <feGaussianBlur stdDeviation="9.623" result="blur"/>
      <feFlood flood-opacity="0.8"/>
      <feComposite operator="in" in2="blur"/>
      <feComposite in="SourceGraphic"/>
    </filter>
  </defs>
  <g transform="matrix(1, 0, 0, 1, 0, 0)" filter="url(#Rect치ngulo_158)">
    <rect id="Rect치ngulo_158-2" data-name="Rect치ngulo 158" width="99.703" height="99.703" rx="22.446" transform="translate(28.87 28.87)" fill="#1c1c1c"/>
  </g>
  <g id="Grupo_217" data-name="Grupo 217" transform="translate(-950.938 -896.949)">
    <path id="Trazado_257" data-name="Trazado 257" d="M1048.184,1004.547c-.579,1.494-1.139,2.912-1.677,4.337a3.1,3.1,0,0,1-5.893.481c-2.345-4.113-4.726-8.205-7.093-12.306a4.345,4.345,0,0,0-3.977-1.862,4.686,4.686,0,0,0-3.575,2.445c-2.082,3.956-4.437,7.767-6.648,11.656a3.206,3.206,0,0,1-3.2,1.984,3.15,3.15,0,0,1-2.748-2.43c-.535-1.424-1.1-2.838-1.664-4.295-1.71.241-3.366.449-5.014.714a2.99,2.99,0,0,1-3.147-4.534q3.462-6.008,6.926-12.015a2.58,2.58,0,0,0-.587-3.618,11.511,11.511,0,0,0-1.566-1.07c-2.467-1.506-3.468-3.484-2.951-6.318a5.722,5.722,0,0,0-1.021-4.632,5.7,5.7,0,0,1,.014-7.164,5.729,5.729,0,0,0,1-4.636,5.469,5.469,0,0,1,2.994-6.281,5.616,5.616,0,0,0,2.871-3.637,5.469,5.469,0,0,1,5.416-4.49,5.618,5.618,0,0,0,4.241-2.111,5.293,5.293,0,0,1,6.654-1.554,5.8,5.8,0,0,0,4.836-.009,5.246,5.246,0,0,1,6.567,1.5,5.881,5.881,0,0,0,4.438,2.194,5.252,5.252,0,0,1,5.163,4.181,6.238,6.238,0,0,0,3.2,4.057,5.413,5.413,0,0,1,2.775,6.176,5.711,5.711,0,0,0,1.022,4.631,5.661,5.661,0,0,1,.042,7.071,5.883,5.883,0,0,0-1.062,4.732c.509,2.831-.535,4.739-2.964,6.33a12.28,12.28,0,0,0-2.434,2.341,1.571,1.571,0,0,0,.065,1.955c2.4,4.08,4.748,8.192,7.118,12.291a2.976,2.976,0,0,1-.015,3.374,2.786,2.786,0,0,1-2.8,1.272c-1.589-.2-3.17-.467-4.754-.7C1048.594,1004.585,1048.446,1004.575,1048.184,1004.547Zm3.445-44.254a2.562,2.562,0,0,0-1.451-2.611,8.288,8.288,0,0,1-4.468-5.7,2.634,2.634,0,0,0-2.762-2.132,7.784,7.784,0,0,1-5.954-2.859c-1.29-1.522-2-1.658-3.83-.886a7.869,7.869,0,0,1-6.4.014c-1.893-.8-2.571-.658-3.917.922a7.925,7.925,0,0,1-5.751,2.816c-1.934.142-2.521.563-3.008,2.405a8,8,0,0,1-4.058,5.216c-1.681.928-1.962,1.724-1.663,3.6a7.519,7.519,0,0,1-1.252,6.064,3.437,3.437,0,0,0-.031,4.679,7.544,7.544,0,0,1,1.295,6.057c-.3,1.975-.041,2.719,1.7,3.685a7.762,7.762,0,0,1,3.983,5.138,2.828,2.828,0,0,0,2.864,2.471,7.794,7.794,0,0,1,6.181,3.094,2.614,2.614,0,0,0,3.417.74,7.8,7.8,0,0,1,6.905.022,2.554,2.554,0,0,0,3.32-.734,7.885,7.885,0,0,1,6.282-3.129,2.7,2.7,0,0,0,2.745-2.318,8.023,8.023,0,0,1,4.185-5.38c1.547-.847,1.873-1.73,1.578-3.439a7.638,7.638,0,0,1,1.3-6.266,3.4,3.4,0,0,0-.041-4.588,6.685,6.685,0,0,1-1.387-4.83C1051.49,961.613,1051.568,960.873,1051.629,960.293Zm-35.217,48.016,6.914-11.975c-1.115-.991-2.055-1.95-3.123-2.735a6.063,6.063,0,0,0-2.614-1.3,9.507,9.507,0,0,1-4.8-1.58c-2.229,3.867-4.408,7.648-6.711,11.642,2.042-.314,3.806-.573,5.566-.859,1.673-.272,2.061-.061,2.7,1.548Zm30.891-17.248c-1.674.412-3.177.729-4.646,1.163a9.026,9.026,0,0,0-2.708,1.135,41.164,41.164,0,0,0-3.379,2.988l6.919,11.963c.755-1.925,1.405-3.586,2.057-5.246s1-1.837,2.793-1.547c1.743.282,3.492.525,5.47.82Z" fill="#009fe3"/>
    <path id="Trazado_258" data-name="Trazado 258" d="M1029.963,951.614a17.921,17.921,0,1,1-17.937,17.911A17.881,17.881,0,0,1,1029.963,951.614Zm-.011,32.8a14.911,14.911,0,1,0-14.941-14.923A14.94,14.94,0,0,0,1029.952,984.414Z" fill="#009fe3"/>
    <path id="Trazado_259" data-name="Trazado 259" d="M1029.644,971.741c1.695-2.54,3.2-4.849,4.773-7.11a2.548,2.548,0,0,1,1.353-1.016,1.448,1.448,0,0,1,1.289.577,2.443,2.443,0,0,1-.066,1.842c-1.083,1.826-2.316,3.562-3.494,5.332-.7,1.055-1.391,2.121-2.113,3.163-.8,1.148-1.724,1.263-2.7.315-1.364-1.326-2.706-2.677-4.038-4.037a1.544,1.544,0,0,1-.165-2.362c.659-.613,1.468-.549,2.264.251C1027.692,969.645,1028.6,970.635,1029.644,971.741Z" fill="#009fe3"/>
  </g>
</svg>
