<svg xmlns="http://www.w3.org/2000/svg" xmlns:xlink="http://www.w3.org/1999/xlink" width="157.443" height="157.443" viewBox="0 0 157.443 157.443">
  <defs>
    <filter id="Rect치ngulo_161" x="0" y="0" width="157.443" height="157.443" filterUnits="userSpaceOnUse">
      <feOffset input="SourceAlpha"/>
      <feGaussianBlur stdDeviation="9.623" result="blur"/>
      <feFlood flood-opacity="0.8"/>
      <feComposite operator="in" in2="blur"/>
      <feComposite in="SourceGraphic"/>
    </filter>
  </defs>
  <g transform="matrix(1, 0, 0, 1, 0, 0)" filter="url(#Rect치ngulo_161)">
    <rect id="Rect치ngulo_161-2" data-name="Rect치ngulo 161" width="99.703" height="99.703" rx="22.446" transform="translate(28.87 28.87)" fill="#1c1c1c"/>
  </g>
  <g id="Grupo_226" data-name="Grupo 226" transform="translate(-736.284 -894.735)">
    <path id="Trazado_262" data-name="Trazado 262" d="M821.705,995.532c0,1.682.012,3.3,0,4.911-.014,1.369-.467,1.838-1.8,1.842q-5.385.017-10.772,0c-1.269,0-1.74-.483-1.758-1.77-.022-1.436-.03-2.873.005-4.308a.855.855,0,0,0-.707-1,15.764,15.764,0,0,1-1.91-.719c-1.684-.725-1.68-.732-3.005.592-.761.761-1.51,1.537-2.291,2.278a1.452,1.452,0,0,1-2.344-.007q-3.9-3.866-7.767-7.77c-.866-.874-.839-1.6.051-2.506.979-1,1.964-2,2.976-2.964a.927.927,0,0,0,.25-1.289c-.56-1.118-1-2.3-1.521-3.542-1.6,0-3.247.012-4.894,0-1.412-.013-1.855-.465-1.858-1.887q-.012-5.278,0-10.558c0-1.42.447-1.87,1.862-1.883,1.647-.015,3.293,0,4.869,0,.575-1.313,1.141-2.512,1.608-3.748a1.178,1.178,0,0,0-.274-.982c-.951-1.026-1.97-1.988-2.953-2.986s-1-1.682-.028-2.657q3.759-3.78,7.539-7.539c.992-.988,1.647-.983,2.653,0s1.995,1.966,2.961,2.979a.845.845,0,0,0,1.207.2,14.349,14.349,0,0,1,1.863-.833c1.7-.671,1.7-.663,1.7-2.542,0-1.077-.019-2.155.008-3.232.029-1.155.508-1.66,1.64-1.666q5.493-.027,10.988,0c1.2.005,1.676.491,1.693,1.722.023,1.685.006,3.371.006,5.012,1.292.557,2.493,1.114,3.731,1.575a1.175,1.175,0,0,0,.993-.244c1.078-1,2.086-2.075,3.142-3.1a1.472,1.472,0,0,1,2.42.006q3.864,3.83,7.692,7.693a1.524,1.524,0,0,1,.022,2.509c-.973,1.006-1.957,2-2.973,2.966a.968.968,0,0,0-.263,1.374,12.064,12.064,0,0,1,1.077,2.573c.218.805.641.96,1.381.933,1.362-.05,2.729-.033,4.093-.006,1.21.023,1.688.506,1.692,1.722q.021,5.44,0,10.881c-.005,1.211-.492,1.683-1.712,1.7-1.686.019-3.372.005-5.024.005-.566,1.308-1.14,2.539-1.614,3.809a1.2,1.2,0,0,0,.317.972c.98,1.049,2.029,2.032,3.027,3.064a1.52,1.52,0,0,1-.024,2.506q-3.831,3.861-7.692,7.692a1.477,1.477,0,0,1-2.421.006c-1.032-1-2.051-2.012-3.043-3.05a.927.927,0,0,0-1.291-.23C824.115,994.58,822.934,995.015,821.705,995.532Zm-34.422-19.115c1.526,0,2.992.047,4.453-.015a1.9,1.9,0,0,1,2.112,1.536,43.561,43.561,0,0,0,1.855,4.57c.65,1.386.675,1.639-.4,2.728l-2.952,2.98,6.078,6.175c1.019-1.05,2.08-2.117,3.111-3.213a1.783,1.783,0,0,1,2.4-.359,43.516,43.516,0,0,0,4.649,1.952c1.383.495,1.641.73,1.645,2.227q0,2.181,0,4.358h8.615c0-1.573.036-3.076-.013-4.577a1.816,1.816,0,0,1,1.452-1.956,44.363,44.363,0,0,0,4.76-1.955,1.868,1.868,0,0,1,2.569.415c.975,1.1,2,2.148,2.935,3.143l6.236-6.3c-.936-.889-1.963-1.838-2.959-2.818-1.158-1.138-1.125-1.386-.458-2.809a47.758,47.758,0,0,0,1.855-4.571,1.867,1.867,0,0,1,2.012-1.528c1.5.053,3,.013,4.534.013v-8.6c-1.557,0-3.029-.042-4.5.014a1.875,1.875,0,0,1-2.032-1.505,44.514,44.514,0,0,0-1.959-4.758,1.813,1.813,0,0,1,.382-2.48c1.115-1,2.192-2.049,3.265-3.058l-6.247-6.248c-1.053,1.091-2.124,2.191-3.183,3.3a1.746,1.746,0,0,1-2.314.339,48.04,48.04,0,0,0-4.75-1.985c-1.283-.463-1.583-.752-1.587-2.167,0-1.459,0-2.918,0-4.384h-8.615c0,1.565-.042,3.037.014,4.506a1.862,1.862,0,0,1-1.512,2.022c-1.584.555-3.143,1.2-4.667,1.9-1.306.6-1.6.634-2.631-.431-1.018-1.045-2-2.124-2.931-3.113l-6.271,6.213c.979.944,1.995,1.9,2.987,2.884,1.2,1.186,1.169,1.41.458,2.9a42.837,42.837,0,0,0-1.8,4.365c-.486,1.395-.736,1.665-2.207,1.669s-2.913,0-4.389,0Z" fill="#009fe3"/>
    <path id="Trazado_263" data-name="Trazado 263" d="M814.544,959.176a12.934,12.934,0,1,1-12.94,12.953A12.95,12.95,0,0,1,814.544,959.176Zm0,2.865a10.069,10.069,0,1,0,10.061,10.1A10.133,10.133,0,0,0,814.543,962.041Z" fill="#009fe3"/>
  </g>
</svg>
