<svg xmlns="http://www.w3.org/2000/svg" xmlns:xlink="http://www.w3.org/1999/xlink" width="157.443" height="157.443" viewBox="0 0 157.443 157.443">
  <defs>
    <filter id="Rect치ngulo_160" x="0" y="0" width="157.443" height="157.443" filterUnits="userSpaceOnUse">
      <feOffset input="SourceAlpha"/>
      <feGaussianBlur stdDeviation="9.623" result="blur"/>
      <feFlood flood-opacity="0.8"/>
      <feComposite operator="in" in2="blur"/>
      <feComposite in="SourceGraphic"/>
    </filter>
  </defs>
  <g transform="matrix(1, 0, 0, 1, 0, 0)" filter="url(#Rect치ngulo_160)">
    <rect id="Rect치ngulo_160-2" data-name="Rect치ngulo 160" width="99.703" height="99.703" rx="22.446" transform="translate(28.87 28.87)" fill="#1c1c1c"/>
  </g>
  <g id="Grupo_222" data-name="Grupo 222" transform="translate(-502.745 -892.521)">
    <g id="Grupo_221" data-name="Grupo 221">
      <path id="Trazado_260" data-name="Trazado 260" d="M552.682,959.948c0-2.415.026-4.831-.01-7.246a2.907,2.907,0,0,1,2-2.989q12.546-5.186,25.077-10.406a3.236,3.236,0,0,1,2.634,0q12.532,5.219,25.076,10.409a2.7,2.7,0,0,1,1.959,2.581c-.029,5.459.132,10.932-.192,16.375a43.681,43.681,0,0,1-26.882,37.208,3.545,3.545,0,0,1-2.5.032c-14.257-6.27-23.078-17.009-26.35-32.271C552.527,969.117,552.685,964.529,552.682,959.948Zm5.26,1.219a52.905,52.905,0,0,0,.807,11.91c2.782,12.533,9.984,21.577,21.439,27.3a1.8,1.8,0,0,0,1.748,0,38.5,38.5,0,0,0,14.235-11.5,36.782,36.782,0,0,0,7.786-20.266c.286-4.6.142-9.236.23-13.855.012-.649-.322-.823-.8-1.022-7.2-2.979-14.4-5.978-21.606-8.934a2.107,2.107,0,0,0-1.45.009c-7.211,2.957-14.4,5.963-21.61,8.924a1.1,1.1,0,0,0-.789,1.244C557.967,957.035,557.942,959.1,557.942,961.167Z" fill="#009fe3"/>
      <path id="Trazado_261" data-name="Trazado 261" d="M578.168,974.2c3.618-3.636,7.144-7.182,10.672-10.725,1.6-1.611,3.153-1.809,4.357-.561,1.135,1.176.9,2.739-.652,4.291q-6.051,6.051-12.1,12.1c-1.637,1.635-2.948,1.629-4.591-.012q-3.3-3.3-6.6-6.61c-1.279-1.284-1.4-2.878-.307-3.991s2.7-1.034,3.989.244C574.643,970.636,576.336,972.355,578.168,974.2Z" fill="#009fe3"/>
    </g>
  </g>
</svg>
