<svg xmlns="http://www.w3.org/2000/svg" width="47.814" height="46.642" viewBox="0 0 47.814 46.642">
  <path id="Trazado_220" data-name="Trazado 220" d="M807.354,1222.536a1.795,1.795,0,1,1-1.864,1.793A1.83,1.83,0,0,1,807.354,1222.536Zm14,1.793a1.866,1.866,0,1,0-1.864,1.794A1.83,1.83,0,0,0,821.356,1224.329Zm-31.84.083v-3.47a5.327,5.327,0,0,1,5.32-5.321h.811c.712-8.961,8.261-15.795,17.776-15.795s17.064,6.834,17.776,15.795h.81a5.327,5.327,0,0,1,5.321,5.321v3.47a5.327,5.327,0,0,1-5.321,5.32h-1.691a.942.942,0,0,1-.942-.941v-11.782c0-8.58-7.007-15.3-15.953-15.3s-15.953,6.72-15.953,15.3v11.782a7.718,7.718,0,0,0,2.438,5.628,13.823,13.823,0,0,1-.95-5.043v-12.917c0-7.211,6.489-13.077,14.465-13.077s14.465,5.866,14.465,13.077v12.995a13.963,13.963,0,0,1-6.653,11.817v5.2h-1.882v-4.231a13.722,13.722,0,0,1-1.4.51,14.865,14.865,0,0,1-4.25.621h-.565c-.244,0-.488-.006-.73-.018a14.276,14.276,0,0,1-4.92-1.13v4.248h-1.882v-5.224a14.223,14.223,0,0,1-1.887-1.393c.347.025.7.042,1.082.042h2.225a12.361,12.361,0,0,0,5.474,1.577q.316.015.638.015h.565a12.947,12.947,0,0,0,3.712-.543,12.073,12.073,0,0,0,8.585-11.488v-10.119a9.97,9.97,0,0,1-7.545-4.859,22.893,22.893,0,0,1-14.885,5.1,25.5,25.5,0,0,1-2.734-.144v9.941a11.945,11.945,0,0,0,2.15,6.836,7.716,7.716,0,0,0,2.23.33h4.125a1.609,1.609,0,0,1,1.3-.672h5.394a1.614,1.614,0,1,1,0,3.228h-5.394a1.607,1.607,0,0,1-1.3-.673h-4.125a9.676,9.676,0,0,1-9.588-8.693h-.8A5.327,5.327,0,0,1,789.516,1224.412Zm11.325-6.608c2.6.286,11.125.688,17.363-5.269a.807.807,0,0,1,1.33.353c.765,2.559,4.074,4.674,6.471,4.829v-1.258c0-6.173-5.644-11.195-12.582-11.195s-12.582,5.022-12.582,11.195Zm30.418,10.045h.75a3.441,3.441,0,0,0,3.438-3.437v-3.47a3.442,3.442,0,0,0-3.438-3.438h-.75Zm-39.86-3.437a3.441,3.441,0,0,0,3.437,3.437h.751V1217.5h-.751a3.441,3.441,0,0,0-3.437,3.438Z" transform="translate(-789.516 -1199.826)" fill="#fff"/>
</svg>
