<svg xmlns="http://www.w3.org/2000/svg" width="33.237" height="29.586" viewBox="0 0 33.237 29.586">
  <path id="Trazado_192" data-name="Trazado 192" d="M1143.81,4086.25a2.132,2.132,0,0,1-1.349-.48l-7-5.706a2.137,2.137,0,0,1,2.7-3.312l5.5,4.486,13.083-13.083a2.137,2.137,0,0,1,3.021,3.022l-14.448,14.447A2.131,2.131,0,0,1,1143.81,4086.25Z" transform="translate(-1127.158 -4065.557)" fill="#1c2646"/>
  <path id="Trazado_193" data-name="Trazado 193" d="M1152.879,4082.934a11.232,11.232,0,1,1-4.14-11.53l2.534-2.535a14.79,14.79,0,1,0,5.47,11.481c0-.41-.022-.818-.056-1.225Z" transform="translate(-1127.158 -4065.557)" fill="#375280"/>
</svg>
