<svg xmlns="http://www.w3.org/2000/svg" xmlns:xlink="http://www.w3.org/1999/xlink" width="382.726" height="201.865" viewBox="0 0 382.726 201.865">
  <defs>
    <clipPath id="clip-path">
      <rect id="Rectángulo_60" data-name="Rectángulo 60" width="382.726" height="201.865" transform="translate(4685.497 886.294)" fill="none"/>
    </clipPath>
  </defs>
  <g id="Grupo_81" data-name="Grupo 81" transform="translate(-4685.497 -886.294)" opacity="0.02">
    <g id="Grupo_80" data-name="Grupo 80" clip-path="url(#clip-path)">
      <g id="Grupo_79" data-name="Grupo 79">
        <path id="Trazado_109" data-name="Trazado 109" d="M4705.1,1118.26l103.232-103.232h45.695L4750.346,1118.26Z" fill="#edeeef"/>
        <path id="Trazado_110" data-name="Trazado 110" d="M4613.227,1118.26l103.232-103.232h45.694L4658.477,1118.26Z" fill="#edeeef"/>
        <path id="Trazado_111" data-name="Trazado 111" d="M4853.943,1015.028,4957.175,911.8h45.694l-103.677,103.232Z" fill="#edeeef"/>
        <path id="Trazado_112" data-name="Trazado 112" d="M4944.829,1015.028,5048.061,911.8h45.695l-103.678,103.232Z" fill="#edeeef"/>
        <path id="Trazado_113" data-name="Trazado 113" d="M4671.269,1015.028,4774.5,911.8H4820.2l-103.677,103.232Z" fill="#edeeef"/>
        <path id="Trazado_114" data-name="Trazado 114" d="M4762.154,1015.028,4865.386,911.8h45.694L4807.4,1015.028Z" fill="#edeeef"/>
        <path id="Trazado_115" data-name="Trazado 115" d="M4795.982,1118.26l103.232-103.232h45.694L4841.231,1118.26Z" fill="#edeeef"/>
        <path id="Trazado_116" data-name="Trazado 116" d="M4886.868,1118.26,4990.1,1015.028h45.695L4932.117,1118.26Z" fill="#edeeef"/>
      </g>
    </g>
  </g>
</svg>
