<svg xmlns="http://www.w3.org/2000/svg" width="36.765" height="36.77" viewBox="0 0 36.765 36.77">
  <g id="Grupo_188" data-name="Grupo 188" transform="translate(-758.919 -2551.848)">
    <path id="Trazado_234" data-name="Trazado 234" d="M788.415,2572.96l3.205,5.087c.723,1.145,1.472,2.275,2.153,3.444a2.981,2.981,0,0,1,.383,1.319c.052,1.184.022,2.372.016,3.558a1.791,1.791,0,0,1-1.92,1.949q-14.94.006-29.88,0a1.792,1.792,0,0,1-1.927-1.941c-.006-1.168-.04-2.337.017-3.5a3.105,3.105,0,0,1,.409-1.423c1.626-2.644,3.3-5.259,4.953-7.884.1-.157.194-.315.368-.6-.931.208-1.738.394-2.548.567a1.824,1.824,0,0,1-2.387-1.3q-.947-2.535-1.881-5.075a1.822,1.822,0,0,1,.65-2.255,26.355,26.355,0,0,1,11.3-4.971,31.674,31.674,0,0,1,10-.317,26.707,26.707,0,0,1,13.207,5.247,1.838,1.838,0,0,1,.686,2.338q-.926,2.512-1.858,5.023a1.822,1.822,0,0,1-2.38,1.309C790.179,2573.365,789.378,2573.177,788.415,2572.96Zm-11.095,14.134q7.4,0,14.8,0c.683,0,.872-.187.877-.867.006-1.035.031-2.073-.014-3.107a2.479,2.479,0,0,0-.334-1.153c-1.677-2.7-3.419-5.364-5.066-8.084a2.934,2.934,0,0,0-2.254-1.666,1.615,1.615,0,0,1-1.369-1.692c-.016-.791-.024-1.583,0-2.373a1.069,1.069,0,0,0-.582-1.062,11.565,11.565,0,0,0-11.581-.344,1.664,1.664,0,0,0-1.145,1.932,5.618,5.618,0,0,1,.008.734c.085,2.062-.155,2.642-2.376,3.078a1.038,1.038,0,0,0-.6.424q-2.916,4.569-5.787,9.166a1.984,1.984,0,0,0-.268.947c-.033,1.016-.013,2.033-.012,3.05,0,.874.144,1.018,1.011,1.018Zm-.018-26.623c-1.83.205-3.675.318-5.485.632a25.2,25.2,0,0,0-10.9,4.641.858.858,0,0,0-.345,1.154c.623,1.613,1.2,3.243,1.8,4.865.23.621.434.739,1.068.594,1.795-.413,3.586-.839,5.382-1.248a.751.751,0,0,0,.662-.835c-.01-.772.017-1.545-.007-2.316a1.919,1.919,0,0,1,.96-1.791,12.006,12.006,0,0,1,6.156-1.957,12.35,12.35,0,0,1,7.618,1.981,1.876,1.876,0,0,1,.922,1.7c-.017.81,0,1.62,0,2.43a.678.678,0,0,0,.539.755q2.8.654,5.6,1.3a.709.709,0,0,0,.934-.492c.626-1.712,1.264-3.421,1.9-5.131a.688.688,0,0,0-.255-.893c-.186-.129-.36-.274-.545-.4A28.278,28.278,0,0,0,777.3,2560.471Z" fill="#fff" stroke="#fff" stroke-miterlimit="10" stroke-width="0.601"/>
    <path id="Trazado_235" data-name="Trazado 235" d="M777.744,2552.149a10.575,10.575,0,0,1,7.035,2.983c.32.3.546.631.2,1.014s-.7.174-1.021-.118a9.58,9.58,0,0,0-13.29-.01c-.322.291-.663.518-1.022.125s-.122-.705.194-1.013A11.161,11.161,0,0,1,777.744,2552.149Z" fill="#fff" stroke="#fff" stroke-miterlimit="10" stroke-width="0.601"/>
    <path id="Trazado_236" data-name="Trazado 236" d="M777.053,2555.174a7.233,7.233,0,0,1,5.129,1.881c.321.29.652.613.26,1.041-.374.41-.729.171-1.066-.133a5.978,5.978,0,0,0-8.141.007c-.306.274-.615.464-.993.172-.334-.259-.293-.629.112-1.008A6.889,6.889,0,0,1,777.053,2555.174Z" fill="#fff" stroke="#fff" stroke-miterlimit="10" stroke-width="0.601"/>
    <path id="Trazado_237" data-name="Trazado 237" d="M777.306,2583.492a6.63,6.63,0,1,1,6.652-6.64A6.662,6.662,0,0,1,777.306,2583.492Zm.044-12.035a5.419,5.419,0,1,0-.028,10.837,5.437,5.437,0,0,0,5.4-5.39A5.38,5.38,0,0,0,777.35,2571.457Z" fill="#fff" stroke="#fff" stroke-miterlimit="10" stroke-width="0.601"/>
    <path id="Trazado_238" data-name="Trazado 238" d="M775.5,2576.868a1.806,1.806,0,1,1,1.783,1.8A1.8,1.8,0,0,1,775.5,2576.868Zm2.476.15.008-.262c-.212-.161-.406-.419-.64-.462a.479.479,0,0,0-.6.551.828.828,0,0,0,.52.577C777.491,2577.443,777.741,2577.166,777.979,2577.018Z" fill="#fff" stroke="#fff" stroke-miterlimit="10" stroke-width="0.601"/>
  </g>
</svg>
