<svg xmlns="http://www.w3.org/2000/svg" width="32.18" height="32.309" viewBox="0 0 32.18 32.309">
  <g id="Grupo_184" data-name="Grupo 184" transform="translate(-1032.091 -2557.652)">
    <path id="Trazado_226" data-name="Trazado 226" d="M1032.091,2589.961c.722-2.653,1.436-5.244,2.122-7.843a1.2,1.2,0,0,0-.1-.79,16.035,16.035,0,1,1,6.862,6.69,1.327,1.327,0,0,0-.851-.093c-2.519.642-5.029,1.316-7.542,1.976A3.856,3.856,0,0,1,1032.091,2589.961Zm3.857-3.814a1.966,1.966,0,0,0,.316-.017c1.388-.362,2.779-.713,4.16-1.1a1.167,1.167,0,0,1,1.005.128,13.125,13.125,0,0,0,8.856,1.725,13.32,13.32,0,1,0-13.52-6.44,2.163,2.163,0,0,1,.217,1.94C1036.6,2583.6,1036.3,2584.856,1035.948,2586.147Z" fill="#fff"/>
    <path id="Trazado_227" data-name="Trazado 227" d="M1040.1,2569.894a4.315,4.315,0,0,1,1.405-3.108,2.357,2.357,0,0,1,2.218-.395,1.309,1.309,0,0,1,.495.6c.433.984.859,1.975,1.225,2.986a1.236,1.236,0,0,1-.093.9,6.718,6.718,0,0,1-.861,1.167.736.736,0,0,0-.08.973,10.987,10.987,0,0,0,5.428,4.642.666.666,0,0,0,.861-.2c.383-.475.784-.938,1.144-1.431a.688.688,0,0,1,.933-.274c1.089.508,2.174,1.025,3.248,1.564a.637.637,0,0,1,.305.448,2.939,2.939,0,0,1-1.157,2.742,4.626,4.626,0,0,1-4.09.732c-4.633-1.219-7.8-4.267-10.177-8.259A5.579,5.579,0,0,1,1040.1,2569.894Z" fill="#fff"/>
  </g>
</svg>
